<mxfile host="app.diagrams.net" agent="Mozilla/5.0 (X11; Linux x86_64) AppleWebKit/537.36 (KHTML, like Gecko) Chrome/141.0.0.0 Safari/537.36" version="28.2.5" pages="3">
  <diagram name="Page-1" id="Va14C255rLLRfZ114q-C">
    <mxGraphModel dx="668" dy="750" grid="0" gridSize="10" guides="1" tooltips="1" connect="1" arrows="1" fold="1" page="1" pageScale="1" pageWidth="1700" pageHeight="1100" math="0" shadow="0">
      <root>
        <mxCell id="0" />
        <mxCell id="1" parent="0" />
        <mxCell id="UruW9KEnY_zIo-SBIYhU-1" style="edgeStyle=orthogonalEdgeStyle;rounded=0;orthogonalLoop=1;jettySize=auto;html=1;exitX=0;exitY=0.75;exitDx=0;exitDy=0;entryX=0.25;entryY=1;entryDx=0;entryDy=0;" edge="1" parent="1" source="UruW9KEnY_zIo-SBIYhU-9" target="UruW9KEnY_zIo-SBIYhU-15">
          <mxGeometry relative="1" as="geometry" />
        </mxCell>
        <mxCell id="UruW9KEnY_zIo-SBIYhU-2" style="edgeStyle=orthogonalEdgeStyle;rounded=0;orthogonalLoop=1;jettySize=auto;html=1;exitX=0;exitY=1;exitDx=0;exitDy=0;entryX=0;entryY=1;entryDx=0;entryDy=0;" edge="1" parent="1" source="UruW9KEnY_zIo-SBIYhU-9" target="UruW9KEnY_zIo-SBIYhU-15">
          <mxGeometry relative="1" as="geometry">
            <Array as="points">
              <mxPoint x="702" y="378" />
              <mxPoint x="320" y="378" />
            </Array>
          </mxGeometry>
        </mxCell>
        <mxCell id="UruW9KEnY_zIo-SBIYhU-3" style="edgeStyle=orthogonalEdgeStyle;rounded=0;orthogonalLoop=1;jettySize=auto;html=1;exitX=1;exitY=0.75;exitDx=0;exitDy=0;entryX=0.25;entryY=1;entryDx=0;entryDy=0;" edge="1" parent="1" source="UruW9KEnY_zIo-SBIYhU-9" target="UruW9KEnY_zIo-SBIYhU-21">
          <mxGeometry relative="1" as="geometry" />
        </mxCell>
        <mxCell id="UruW9KEnY_zIo-SBIYhU-4" style="edgeStyle=orthogonalEdgeStyle;rounded=0;orthogonalLoop=1;jettySize=auto;html=1;exitX=1;exitY=1;exitDx=0;exitDy=0;entryX=0.5;entryY=1;entryDx=0;entryDy=0;" edge="1" parent="1" source="UruW9KEnY_zIo-SBIYhU-9" target="UruW9KEnY_zIo-SBIYhU-21">
          <mxGeometry relative="1" as="geometry">
            <Array as="points">
              <mxPoint x="1238" y="381" />
            </Array>
          </mxGeometry>
        </mxCell>
        <mxCell id="UruW9KEnY_zIo-SBIYhU-5" style="edgeStyle=orthogonalEdgeStyle;rounded=0;orthogonalLoop=1;jettySize=auto;html=1;exitX=0;exitY=1;exitDx=0;exitDy=0;entryX=0.25;entryY=1;entryDx=0;entryDy=0;" edge="1" parent="1" source="UruW9KEnY_zIo-SBIYhU-9" target="UruW9KEnY_zIo-SBIYhU-43">
          <mxGeometry relative="1" as="geometry">
            <mxPoint x="689" y="630" as="targetPoint" />
            <Array as="points">
              <mxPoint x="599" y="381" />
              <mxPoint x="599" y="666" />
              <mxPoint x="758" y="666" />
            </Array>
          </mxGeometry>
        </mxCell>
        <mxCell id="UruW9KEnY_zIo-SBIYhU-6" style="edgeStyle=orthogonalEdgeStyle;rounded=0;orthogonalLoop=1;jettySize=auto;html=1;exitX=0.25;exitY=1;exitDx=0;exitDy=0;entryX=0;entryY=1;entryDx=0;entryDy=0;" edge="1" parent="1" source="UruW9KEnY_zIo-SBIYhU-9" target="UruW9KEnY_zIo-SBIYhU-43">
          <mxGeometry relative="1" as="geometry">
            <Array as="points">
              <mxPoint x="662" y="381" />
              <mxPoint x="662" y="603" />
            </Array>
          </mxGeometry>
        </mxCell>
        <mxCell id="UruW9KEnY_zIo-SBIYhU-7" style="edgeStyle=orthogonalEdgeStyle;rounded=0;orthogonalLoop=1;jettySize=auto;html=1;exitX=1;exitY=1;exitDx=0;exitDy=0;entryX=0.5;entryY=1;entryDx=0;entryDy=0;" edge="1" parent="1" source="UruW9KEnY_zIo-SBIYhU-9" target="UruW9KEnY_zIo-SBIYhU-43">
          <mxGeometry relative="1" as="geometry">
            <Array as="points">
              <mxPoint x="1013" y="381" />
              <mxPoint x="1013" y="666" />
              <mxPoint x="798" y="666" />
            </Array>
          </mxGeometry>
        </mxCell>
        <mxCell id="UruW9KEnY_zIo-SBIYhU-8" style="edgeStyle=orthogonalEdgeStyle;rounded=0;orthogonalLoop=1;jettySize=auto;html=1;exitX=1;exitY=1;exitDx=0;exitDy=0;entryX=1;entryY=1;entryDx=0;entryDy=0;" edge="1" parent="1" source="UruW9KEnY_zIo-SBIYhU-9" target="UruW9KEnY_zIo-SBIYhU-43">
          <mxGeometry relative="1" as="geometry">
            <Array as="points">
              <mxPoint x="941" y="381" />
              <mxPoint x="941" y="623" />
              <mxPoint x="879" y="623" />
            </Array>
          </mxGeometry>
        </mxCell>
        <mxCell id="UruW9KEnY_zIo-SBIYhU-9" value="0" style="swimlane;whiteSpace=wrap;html=1;" vertex="1" parent="1">
          <mxGeometry x="701" y="181" width="206.5" height="200" as="geometry" />
        </mxCell>
        <mxCell id="UruW9KEnY_zIo-SBIYhU-10" value="Sistem Pengurusan Maklumat&lt;div&gt;&amp;nbsp;Bengkel Kereta&lt;/div&gt;" style="text;html=1;align=center;verticalAlign=middle;resizable=0;points=[];autosize=1;strokeColor=#36393d;fillColor=#f9f7ed;fontSize=14;" vertex="1" parent="UruW9KEnY_zIo-SBIYhU-9">
          <mxGeometry x="-0.5" y="78" width="207" height="45" as="geometry" />
        </mxCell>
        <mxCell id="UruW9KEnY_zIo-SBIYhU-11" style="edgeStyle=orthogonalEdgeStyle;rounded=0;orthogonalLoop=1;jettySize=auto;html=1;exitX=0.5;exitY=0;exitDx=0;exitDy=0;entryX=0.25;entryY=0;entryDx=0;entryDy=0;" edge="1" parent="1" source="UruW9KEnY_zIo-SBIYhU-15" target="UruW9KEnY_zIo-SBIYhU-9">
          <mxGeometry relative="1" as="geometry">
            <Array as="points">
              <mxPoint x="401" y="153" />
              <mxPoint x="754" y="153" />
            </Array>
          </mxGeometry>
        </mxCell>
        <mxCell id="UruW9KEnY_zIo-SBIYhU-12" style="edgeStyle=orthogonalEdgeStyle;rounded=0;orthogonalLoop=1;jettySize=auto;html=1;exitX=0.75;exitY=0;exitDx=0;exitDy=0;entryX=0;entryY=0;entryDx=0;entryDy=0;" edge="1" parent="1" source="UruW9KEnY_zIo-SBIYhU-15" target="UruW9KEnY_zIo-SBIYhU-9">
          <mxGeometry relative="1" as="geometry" />
        </mxCell>
        <mxCell id="UruW9KEnY_zIo-SBIYhU-13" style="edgeStyle=orthogonalEdgeStyle;rounded=0;orthogonalLoop=1;jettySize=auto;html=1;exitX=1;exitY=0.5;exitDx=0;exitDy=0;" edge="1" parent="1" source="UruW9KEnY_zIo-SBIYhU-15">
          <mxGeometry relative="1" as="geometry">
            <mxPoint x="707.0000000000002" y="238.44444444444434" as="targetPoint" />
          </mxGeometry>
        </mxCell>
        <mxCell id="UruW9KEnY_zIo-SBIYhU-14" style="edgeStyle=orthogonalEdgeStyle;rounded=0;orthogonalLoop=1;jettySize=auto;html=1;exitX=0.25;exitY=0;exitDx=0;exitDy=0;entryX=0.5;entryY=0;entryDx=0;entryDy=0;" edge="1" parent="1" source="UruW9KEnY_zIo-SBIYhU-15" target="UruW9KEnY_zIo-SBIYhU-9">
          <mxGeometry relative="1" as="geometry">
            <Array as="points">
              <mxPoint x="361" y="126" />
              <mxPoint x="805" y="126" />
            </Array>
          </mxGeometry>
        </mxCell>
        <mxCell id="UruW9KEnY_zIo-SBIYhU-15" value="Pelanggan" style="rounded=0;whiteSpace=wrap;html=1;fontSize=17;" vertex="1" parent="1">
          <mxGeometry x="320" y="207" width="162" height="63" as="geometry" />
        </mxCell>
        <mxCell id="UruW9KEnY_zIo-SBIYhU-16" style="edgeStyle=orthogonalEdgeStyle;rounded=0;orthogonalLoop=1;jettySize=auto;html=1;exitX=0.25;exitY=0;exitDx=0;exitDy=0;entryX=0.75;entryY=0;entryDx=0;entryDy=0;" edge="1" parent="1" source="UruW9KEnY_zIo-SBIYhU-21" target="UruW9KEnY_zIo-SBIYhU-9">
          <mxGeometry relative="1" as="geometry">
            <Array as="points">
              <mxPoint x="1153" y="153" />
              <mxPoint x="856" y="153" />
            </Array>
          </mxGeometry>
        </mxCell>
        <mxCell id="UruW9KEnY_zIo-SBIYhU-17" style="edgeStyle=orthogonalEdgeStyle;rounded=0;orthogonalLoop=1;jettySize=auto;html=1;exitX=0;exitY=0;exitDx=0;exitDy=0;entryX=1;entryY=0;entryDx=0;entryDy=0;" edge="1" parent="1" source="UruW9KEnY_zIo-SBIYhU-21" target="UruW9KEnY_zIo-SBIYhU-9">
          <mxGeometry relative="1" as="geometry" />
        </mxCell>
        <mxCell id="UruW9KEnY_zIo-SBIYhU-18" style="edgeStyle=orthogonalEdgeStyle;rounded=0;orthogonalLoop=1;jettySize=auto;html=1;exitX=0;exitY=0.25;exitDx=0;exitDy=0;" edge="1" parent="1" source="UruW9KEnY_zIo-SBIYhU-21">
          <mxGeometry relative="1" as="geometry">
            <mxPoint x="905" y="222" as="targetPoint" />
          </mxGeometry>
        </mxCell>
        <mxCell id="UruW9KEnY_zIo-SBIYhU-19" style="edgeStyle=orthogonalEdgeStyle;rounded=0;orthogonalLoop=1;jettySize=auto;html=1;exitX=0;exitY=0.75;exitDx=0;exitDy=0;" edge="1" parent="1" source="UruW9KEnY_zIo-SBIYhU-21">
          <mxGeometry relative="1" as="geometry">
            <mxPoint x="905" y="253" as="targetPoint" />
          </mxGeometry>
        </mxCell>
        <mxCell id="UruW9KEnY_zIo-SBIYhU-20" style="edgeStyle=orthogonalEdgeStyle;rounded=0;orthogonalLoop=1;jettySize=auto;html=1;exitX=0.25;exitY=0;exitDx=0;exitDy=0;entryX=0.75;entryY=0;entryDx=0;entryDy=0;" edge="1" parent="1" source="UruW9KEnY_zIo-SBIYhU-21" target="UruW9KEnY_zIo-SBIYhU-9">
          <mxGeometry relative="1" as="geometry">
            <mxPoint x="860" y="171" as="targetPoint" />
            <Array as="points">
              <mxPoint x="1198" y="117" />
              <mxPoint x="860" y="117" />
              <mxPoint x="860" y="181" />
            </Array>
          </mxGeometry>
        </mxCell>
        <mxCell id="UruW9KEnY_zIo-SBIYhU-21" value="Pekerja" style="rounded=0;whiteSpace=wrap;html=1;fontSize=17;" vertex="1" parent="1">
          <mxGeometry x="1157" y="207" width="162" height="63" as="geometry" />
        </mxCell>
        <mxCell id="UruW9KEnY_zIo-SBIYhU-22" value="Maklumat Peribadi" style="text;html=1;align=center;verticalAlign=middle;resizable=0;points=[];autosize=1;strokeColor=none;fillColor=none;fontSize=14;" vertex="1" parent="1">
          <mxGeometry x="482" y="97" width="135" height="27" as="geometry" />
        </mxCell>
        <mxCell id="UruW9KEnY_zIo-SBIYhU-23" value="Maklumat Kereta" style="text;html=1;align=center;verticalAlign=middle;resizable=0;points=[];autosize=1;strokeColor=none;fillColor=none;fontSize=14;" vertex="1" parent="1">
          <mxGeometry x="532" y="126" width="126" height="27" as="geometry" />
        </mxCell>
        <mxCell id="UruW9KEnY_zIo-SBIYhU-24" value="Maklumat Tempahan Servis" style="text;html=1;align=center;verticalAlign=middle;resizable=0;points=[];autosize=1;strokeColor=none;fillColor=none;fontSize=14;" vertex="1" parent="1">
          <mxGeometry x="500" y="159" width="198" height="27" as="geometry" />
        </mxCell>
        <mxCell id="UruW9KEnY_zIo-SBIYhU-25" style="edgeStyle=orthogonalEdgeStyle;rounded=0;orthogonalLoop=1;jettySize=auto;html=1;entryX=0.5;entryY=1;entryDx=0;entryDy=0;" edge="1" parent="1" source="UruW9KEnY_zIo-SBIYhU-10" target="UruW9KEnY_zIo-SBIYhU-15">
          <mxGeometry relative="1" as="geometry">
            <Array as="points">
              <mxPoint x="401" y="290" />
            </Array>
          </mxGeometry>
        </mxCell>
        <mxCell id="UruW9KEnY_zIo-SBIYhU-26" value="Tempahan Servis Yang Dipilih" style="text;html=1;align=center;verticalAlign=middle;resizable=0;points=[];autosize=1;strokeColor=none;fillColor=none;fontSize=14;" vertex="1" parent="1">
          <mxGeometry x="492" y="260" width="210" height="30" as="geometry" />
        </mxCell>
        <mxCell id="UruW9KEnY_zIo-SBIYhU-27" value="Status Pembaikan Kenderaan" style="text;html=1;align=center;verticalAlign=middle;resizable=0;points=[];autosize=1;strokeColor=none;fillColor=none;fontSize=14;" vertex="1" parent="1">
          <mxGeometry x="474" y="306" width="207" height="27" as="geometry" />
        </mxCell>
        <mxCell id="UruW9KEnY_zIo-SBIYhU-28" value="Laporan Service dan Invois" style="text;html=1;align=center;verticalAlign=middle;resizable=0;points=[];autosize=1;strokeColor=none;fillColor=none;fontSize=14;" vertex="1" parent="1">
          <mxGeometry x="465" y="351" width="189" height="27" as="geometry" />
        </mxCell>
        <mxCell id="UruW9KEnY_zIo-SBIYhU-29" value="Maklumat Pembayaran" style="text;html=1;align=center;verticalAlign=middle;resizable=0;points=[];autosize=1;strokeColor=none;fillColor=none;fontSize=14;" vertex="1" parent="1">
          <mxGeometry x="536" y="207" width="162" height="27" as="geometry" />
        </mxCell>
        <mxCell id="UruW9KEnY_zIo-SBIYhU-30" value="Tempahan Baharu Yang Dipilih" style="text;html=1;align=center;verticalAlign=middle;resizable=0;points=[];autosize=1;strokeColor=none;fillColor=none;fontSize=14;" vertex="1" parent="1">
          <mxGeometry x="917" y="125" width="220" height="30" as="geometry" />
        </mxCell>
        <mxCell id="UruW9KEnY_zIo-SBIYhU-31" value="Status Servis Semasa bagi kenderaan" style="text;html=1;align=center;verticalAlign=middle;resizable=0;points=[];autosize=1;strokeColor=none;fillColor=none;fontSize=14;" vertex="1" parent="1">
          <mxGeometry x="901" y="161" width="260" height="30" as="geometry" />
        </mxCell>
        <mxCell id="UruW9KEnY_zIo-SBIYhU-32" value="Maklumat Alat Ganti Bahan" style="text;html=1;align=center;verticalAlign=middle;resizable=0;points=[];autosize=1;strokeColor=none;fillColor=none;fontSize=14;" vertex="1" parent="1">
          <mxGeometry x="925" y="194" width="189" height="27" as="geometry" />
        </mxCell>
        <mxCell id="UruW9KEnY_zIo-SBIYhU-33" value="Catatan Kerja Atau Komen" style="text;html=1;align=center;verticalAlign=middle;resizable=0;points=[];autosize=1;strokeColor=none;fillColor=none;fontSize=14;" vertex="1" parent="1">
          <mxGeometry x="923" y="225" width="189" height="27" as="geometry" />
        </mxCell>
        <mxCell id="UruW9KEnY_zIo-SBIYhU-34" style="edgeStyle=orthogonalEdgeStyle;rounded=0;orthogonalLoop=1;jettySize=auto;html=1;entryX=0;entryY=1;entryDx=0;entryDy=0;" edge="1" parent="1" source="UruW9KEnY_zIo-SBIYhU-10" target="UruW9KEnY_zIo-SBIYhU-21">
          <mxGeometry relative="1" as="geometry">
            <Array as="points">
              <mxPoint x="1157" y="282" />
            </Array>
          </mxGeometry>
        </mxCell>
        <mxCell id="UruW9KEnY_zIo-SBIYhU-35" value="Senarai Tempahan Baharu" style="text;html=1;align=center;verticalAlign=middle;resizable=0;points=[];autosize=1;strokeColor=none;fillColor=none;fontSize=14;" vertex="1" parent="1">
          <mxGeometry x="923" y="254" width="189" height="27" as="geometry" />
        </mxCell>
        <mxCell id="UruW9KEnY_zIo-SBIYhU-36" value="Maklumat Pekerja" style="text;html=1;align=center;verticalAlign=middle;resizable=0;points=[];autosize=1;strokeColor=none;fillColor=none;fontSize=14;" vertex="1" parent="1">
          <mxGeometry x="959" y="90" width="135" height="27" as="geometry" />
        </mxCell>
        <mxCell id="UruW9KEnY_zIo-SBIYhU-37" value="Maklumat Pelanggan dan Kenderaan" style="text;html=1;align=center;verticalAlign=middle;resizable=0;points=[];autosize=1;strokeColor=none;fillColor=none;fontSize=14;" vertex="1" parent="1">
          <mxGeometry x="940" y="297" width="252" height="27" as="geometry" />
        </mxCell>
        <mxCell id="UruW9KEnY_zIo-SBIYhU-38" value="Maklum balas Pelanggan Selepas Servis" style="text;html=1;align=center;verticalAlign=middle;resizable=0;points=[];autosize=1;strokeColor=none;fillColor=none;fontSize=14;" vertex="1" parent="1">
          <mxGeometry x="927" y="354" width="279" height="27" as="geometry" />
        </mxCell>
        <mxCell id="UruW9KEnY_zIo-SBIYhU-39" style="edgeStyle=orthogonalEdgeStyle;rounded=0;orthogonalLoop=1;jettySize=auto;html=1;exitX=0;exitY=0;exitDx=0;exitDy=0;entryX=0;entryY=1;entryDx=0;entryDy=0;" edge="1" parent="1" source="UruW9KEnY_zIo-SBIYhU-43" target="UruW9KEnY_zIo-SBIYhU-9">
          <mxGeometry relative="1" as="geometry">
            <Array as="points">
              <mxPoint x="701" y="540" />
            </Array>
          </mxGeometry>
        </mxCell>
        <mxCell id="UruW9KEnY_zIo-SBIYhU-40" style="edgeStyle=orthogonalEdgeStyle;rounded=0;orthogonalLoop=1;jettySize=auto;html=1;exitX=0.25;exitY=0;exitDx=0;exitDy=0;entryX=0.25;entryY=1;entryDx=0;entryDy=0;" edge="1" parent="1" source="UruW9KEnY_zIo-SBIYhU-43" target="UruW9KEnY_zIo-SBIYhU-9">
          <mxGeometry relative="1" as="geometry" />
        </mxCell>
        <mxCell id="UruW9KEnY_zIo-SBIYhU-41" style="edgeStyle=orthogonalEdgeStyle;rounded=0;orthogonalLoop=1;jettySize=auto;html=1;exitX=0.75;exitY=0;exitDx=0;exitDy=0;entryX=0.75;entryY=1;entryDx=0;entryDy=0;" edge="1" parent="1" source="UruW9KEnY_zIo-SBIYhU-43" target="UruW9KEnY_zIo-SBIYhU-9">
          <mxGeometry relative="1" as="geometry" />
        </mxCell>
        <mxCell id="UruW9KEnY_zIo-SBIYhU-42" style="edgeStyle=orthogonalEdgeStyle;rounded=0;orthogonalLoop=1;jettySize=auto;html=1;exitX=1;exitY=0;exitDx=0;exitDy=0;entryX=1;entryY=1;entryDx=0;entryDy=0;" edge="1" parent="1" source="UruW9KEnY_zIo-SBIYhU-43" target="UruW9KEnY_zIo-SBIYhU-9">
          <mxGeometry relative="1" as="geometry">
            <Array as="points">
              <mxPoint x="908" y="540" />
              <mxPoint x="908" y="460" />
            </Array>
          </mxGeometry>
        </mxCell>
        <mxCell id="UruW9KEnY_zIo-SBIYhU-43" value="Admin" style="rounded=0;whiteSpace=wrap;html=1;fontSize=17;" vertex="1" parent="1">
          <mxGeometry x="725" y="540" width="162" height="63" as="geometry" />
        </mxCell>
        <mxCell id="UruW9KEnY_zIo-SBIYhU-44" value="Senarai tempahan&lt;div&gt;&amp;nbsp;dan status servis&lt;/div&gt;" style="text;html=1;align=center;verticalAlign=middle;resizable=0;points=[];autosize=1;strokeColor=none;fillColor=none;fontSize=14;rotation=-90;" vertex="1" parent="1">
          <mxGeometry x="500" y="504" width="135" height="45" as="geometry" />
        </mxCell>
        <mxCell id="UruW9KEnY_zIo-SBIYhU-45" value="Prestasi&amp;nbsp;&lt;div&gt;Pekerja&lt;/div&gt;" style="text;html=1;align=center;verticalAlign=middle;resizable=0;points=[];autosize=1;strokeColor=none;fillColor=none;fontSize=14;rotation=-90;" vertex="1" parent="1">
          <mxGeometry x="599" y="459" width="72" height="45" as="geometry" />
        </mxCell>
        <mxCell id="UruW9KEnY_zIo-SBIYhU-46" value="Rekod Alat Ganti&amp;nbsp;&lt;div&gt;Digunakan&lt;/div&gt;" style="text;html=1;align=center;verticalAlign=middle;resizable=0;points=[];autosize=1;strokeColor=none;fillColor=none;fontSize=14;rotation=-90;" vertex="1" parent="1">
          <mxGeometry x="977" y="495" width="135" height="45" as="geometry" />
        </mxCell>
        <mxCell id="UruW9KEnY_zIo-SBIYhU-47" value="Maklum Balas&amp;nbsp;&lt;div&gt;Pelanggan&lt;/div&gt;" style="text;html=1;align=center;verticalAlign=middle;resizable=0;points=[];autosize=1;strokeColor=none;fillColor=none;fontSize=14;rotation=-90;" vertex="1" parent="1">
          <mxGeometry x="916.5" y="495" width="117" height="45" as="geometry" />
        </mxCell>
        <mxCell id="UruW9KEnY_zIo-SBIYhU-48" value="Tempahan yang&amp;nbsp;&lt;div&gt;dipilih&lt;/div&gt;" style="text;html=1;align=center;verticalAlign=middle;resizable=0;points=[];autosize=1;strokeColor=none;fillColor=none;fontSize=14;rotation=-90;" vertex="1" parent="1">
          <mxGeometry x="665" y="454" width="130" height="50" as="geometry" />
        </mxCell>
        <mxCell id="UruW9KEnY_zIo-SBIYhU-49" value="Bilangan Stok" style="text;html=1;align=center;verticalAlign=middle;resizable=0;points=[];autosize=1;strokeColor=none;fillColor=none;fontSize=14;rotation=-90;" vertex="1" parent="1">
          <mxGeometry x="769" y="467" width="110" height="30" as="geometry" />
        </mxCell>
        <mxCell id="UruW9KEnY_zIo-SBIYhU-50" value="Maklumat Admin" style="text;html=1;align=center;verticalAlign=middle;resizable=0;points=[];autosize=1;strokeColor=none;fillColor=none;fontSize=14;rotation=-90;" vertex="1" parent="1">
          <mxGeometry x="626" y="459" width="126" height="27" as="geometry" />
        </mxCell>
        <mxCell id="UruW9KEnY_zIo-SBIYhU-51" value="Maklumat Pekerja" style="text;html=1;align=center;verticalAlign=middle;resizable=0;points=[];autosize=1;strokeColor=none;fillColor=none;fontSize=14;rotation=-90;" vertex="1" parent="1">
          <mxGeometry x="815" y="464" width="140" height="30" as="geometry" />
        </mxCell>
      </root>
    </mxGraphModel>
  </diagram>
  <diagram name="Page-2" id="If4S3fhZVFGXlXNNhOPc">
    <mxGraphModel dx="954" dy="1071" grid="0" gridSize="10" guides="1" tooltips="1" connect="1" arrows="1" fold="1" page="0" pageScale="1" pageWidth="1700" pageHeight="1100" math="0" shadow="0">
      <root>
        <mxCell id="0" />
        <mxCell id="1" parent="0" />
        <mxCell id="Y9vOa5RN0gEG9IAq9d5h-1" style="edgeStyle=orthogonalEdgeStyle;rounded=0;orthogonalLoop=1;jettySize=auto;html=1;exitX=0;exitY=0.5;exitDx=0;exitDy=0;entryX=1;entryY=0.75;entryDx=0;entryDy=0;" edge="1" parent="1" source="Y9vOa5RN0gEG9IAq9d5h-60" target="Y9vOa5RN0gEG9IAq9d5h-5">
          <mxGeometry relative="1" as="geometry">
            <Array as="points">
              <mxPoint x="417" y="316" />
              <mxPoint x="417" y="213" />
            </Array>
            <mxPoint x="433" y="348" as="targetPoint" />
          </mxGeometry>
        </mxCell>
        <mxCell id="Y9vOa5RN0gEG9IAq9d5h-2" style="edgeStyle=orthogonalEdgeStyle;rounded=0;orthogonalLoop=1;jettySize=auto;html=1;exitX=1;exitY=1;exitDx=0;exitDy=0;" edge="1" parent="1" source="Y9vOa5RN0gEG9IAq9d5h-5">
          <mxGeometry relative="1" as="geometry">
            <mxPoint x="492" y="456" as="targetPoint" />
            <Array as="points">
              <mxPoint x="395" y="229" />
              <mxPoint x="395" y="456" />
            </Array>
          </mxGeometry>
        </mxCell>
        <mxCell id="Y9vOa5RN0gEG9IAq9d5h-3" style="edgeStyle=orthogonalEdgeStyle;rounded=0;orthogonalLoop=1;jettySize=auto;html=1;entryX=0.75;entryY=1;entryDx=0;entryDy=0;exitX=0;exitY=0.5;exitDx=0;exitDy=0;" edge="1" parent="1" source="Y9vOa5RN0gEG9IAq9d5h-54" target="Y9vOa5RN0gEG9IAq9d5h-5">
          <mxGeometry relative="1" as="geometry">
            <mxPoint x="575" y="616" as="targetPoint" />
            <Array as="points">
              <mxPoint x="371" y="607" />
              <mxPoint x="371" y="246" />
              <mxPoint x="326" y="246" />
            </Array>
            <mxPoint x="456" y="549" as="sourcePoint" />
          </mxGeometry>
        </mxCell>
        <mxCell id="Y9vOa5RN0gEG9IAq9d5h-4" style="edgeStyle=orthogonalEdgeStyle;rounded=0;orthogonalLoop=1;jettySize=auto;html=1;exitX=0;exitY=0.5;exitDx=0;exitDy=0;" edge="1" parent="1" source="Y9vOa5RN0gEG9IAq9d5h-57" target="Y9vOa5RN0gEG9IAq9d5h-5">
          <mxGeometry relative="1" as="geometry">
            <Array as="points">
              <mxPoint x="345" y="756" />
              <mxPoint x="345" y="356" />
              <mxPoint x="286" y="356" />
            </Array>
            <mxPoint x="258" y="356" as="targetPoint" />
          </mxGeometry>
        </mxCell>
        <mxCell id="Y9vOa5RN0gEG9IAq9d5h-5" value="Pelanggan" style="rounded=0;whiteSpace=wrap;html=1;fontSize=17;" vertex="1" parent="1">
          <mxGeometry x="205" y="166" width="162" height="63" as="geometry" />
        </mxCell>
        <mxCell id="Y9vOa5RN0gEG9IAq9d5h-6" style="edgeStyle=orthogonalEdgeStyle;rounded=0;orthogonalLoop=1;jettySize=auto;html=1;exitX=0;exitY=0.5;exitDx=0;exitDy=0;" edge="1" parent="1" source="Y9vOa5RN0gEG9IAq9d5h-8">
          <mxGeometry relative="1" as="geometry">
            <Array as="points">
              <mxPoint x="1428" y="545" />
              <mxPoint x="1428" y="546" />
              <mxPoint x="1397" y="546" />
            </Array>
            <mxPoint x="1419" y="546" as="targetPoint" />
          </mxGeometry>
        </mxCell>
        <mxCell id="Y9vOa5RN0gEG9IAq9d5h-7" style="edgeStyle=orthogonalEdgeStyle;rounded=0;orthogonalLoop=1;jettySize=auto;html=1;exitX=0.5;exitY=0;exitDx=0;exitDy=0;entryX=1.012;entryY=0.55;entryDx=0;entryDy=0;entryPerimeter=0;" edge="1" parent="1" source="Y9vOa5RN0gEG9IAq9d5h-8" target="Y9vOa5RN0gEG9IAq9d5h-72">
          <mxGeometry relative="1" as="geometry">
            <mxPoint x="1575" y="816" as="targetPoint" />
            <Array as="points">
              <mxPoint x="1577" y="429" />
            </Array>
          </mxGeometry>
        </mxCell>
        <mxCell id="gM6pwhn-xmijrrsbZyzp-2" style="edgeStyle=orthogonalEdgeStyle;rounded=0;orthogonalLoop=1;jettySize=auto;html=1;exitX=0.25;exitY=1;exitDx=0;exitDy=0;entryX=1;entryY=0.5;entryDx=0;entryDy=0;fontSize=12;startSize=8;endSize=8;" edge="1" parent="1" source="Y9vOa5RN0gEG9IAq9d5h-8" target="rGTYj-KhPwEEF0hC5yKi-2">
          <mxGeometry relative="1" as="geometry" />
        </mxCell>
        <mxCell id="gM6pwhn-xmijrrsbZyzp-15" style="edgeStyle=none;curved=1;rounded=0;orthogonalLoop=1;jettySize=auto;html=1;exitX=1;exitY=0.5;exitDx=0;exitDy=0;entryX=0;entryY=0.5;entryDx=0;entryDy=0;fontSize=12;startSize=8;endSize=8;" edge="1" parent="1" source="Y9vOa5RN0gEG9IAq9d5h-8" target="rGTYj-KhPwEEF0hC5yKi-5">
          <mxGeometry relative="1" as="geometry" />
        </mxCell>
        <mxCell id="Y9vOa5RN0gEG9IAq9d5h-8" value="Pekerja" style="rounded=0;whiteSpace=wrap;html=1;fontSize=17;" vertex="1" parent="1">
          <mxGeometry x="1498" y="520" width="162" height="63" as="geometry" />
        </mxCell>
        <mxCell id="Y9vOa5RN0gEG9IAq9d5h-9" style="edgeStyle=orthogonalEdgeStyle;rounded=0;orthogonalLoop=1;jettySize=auto;html=1;entryX=0.5;entryY=1;entryDx=0;entryDy=0;exitX=1;exitY=0.5;exitDx=0;exitDy=0;" edge="1" parent="1" source="Y9vOa5RN0gEG9IAq9d5h-77" target="Y9vOa5RN0gEG9IAq9d5h-14">
          <mxGeometry relative="1" as="geometry">
            <mxPoint x="1549" y="1075" as="sourcePoint" />
          </mxGeometry>
        </mxCell>
        <mxCell id="Y9vOa5RN0gEG9IAq9d5h-10" style="edgeStyle=orthogonalEdgeStyle;rounded=0;orthogonalLoop=1;jettySize=auto;html=1;exitX=0;exitY=0.5;exitDx=0;exitDy=0;entryX=1;entryY=0.5;entryDx=0;entryDy=0;" edge="1" parent="1" source="Y9vOa5RN0gEG9IAq9d5h-14" target="Y9vOa5RN0gEG9IAq9d5h-83">
          <mxGeometry relative="1" as="geometry" />
        </mxCell>
        <mxCell id="Y9vOa5RN0gEG9IAq9d5h-11" style="edgeStyle=orthogonalEdgeStyle;rounded=0;orthogonalLoop=1;jettySize=auto;html=1;exitX=0.75;exitY=1;exitDx=0;exitDy=0;entryX=1;entryY=0.75;entryDx=0;entryDy=0;" edge="1" parent="1" source="Y9vOa5RN0gEG9IAq9d5h-14" target="Y9vOa5RN0gEG9IAq9d5h-74">
          <mxGeometry relative="1" as="geometry" />
        </mxCell>
        <mxCell id="Y9vOa5RN0gEG9IAq9d5h-12" style="edgeStyle=orthogonalEdgeStyle;rounded=0;orthogonalLoop=1;jettySize=auto;html=1;entryX=1;entryY=0.5;entryDx=0;entryDy=0;exitX=1;exitY=0.5;exitDx=0;exitDy=0;" edge="1" parent="1" source="Y9vOa5RN0gEG9IAq9d5h-14" target="Y9vOa5RN0gEG9IAq9d5h-65">
          <mxGeometry relative="1" as="geometry" />
        </mxCell>
        <mxCell id="Y9vOa5RN0gEG9IAq9d5h-13" style="edgeStyle=orthogonalEdgeStyle;rounded=0;orthogonalLoop=1;jettySize=auto;html=1;exitX=0.75;exitY=0;exitDx=0;exitDy=0;entryX=0.5;entryY=1;entryDx=0;entryDy=0;" edge="1" parent="1" source="Y9vOa5RN0gEG9IAq9d5h-14" target="Y9vOa5RN0gEG9IAq9d5h-80">
          <mxGeometry relative="1" as="geometry">
            <mxPoint x="1417" y="344" as="targetPoint" />
            <Array as="points">
              <mxPoint x="1590" y="702" />
              <mxPoint x="1740" y="702" />
              <mxPoint x="1740" y="306" />
              <mxPoint x="1662" y="306" />
            </Array>
          </mxGeometry>
        </mxCell>
        <mxCell id="Y9vOa5RN0gEG9IAq9d5h-14" value="Pengurus" style="rounded=0;whiteSpace=wrap;html=1;fontSize=17;" vertex="1" parent="1">
          <mxGeometry x="1468" y="830" width="162" height="63" as="geometry" />
        </mxCell>
        <mxCell id="Y9vOa5RN0gEG9IAq9d5h-15" value="" style="group" vertex="1" connectable="0" parent="1">
          <mxGeometry x="784" y="157" width="289" height="70" as="geometry" />
        </mxCell>
        <mxCell id="Y9vOa5RN0gEG9IAq9d5h-16" value="&lt;font style=&quot;font-size: 20px;&quot;&gt;&amp;nbsp; &amp;nbsp; &amp;nbsp; &amp;nbsp; &amp;nbsp; &amp;nbsp; Jadual Pelanggan&lt;/font&gt;" style="rounded=0;whiteSpace=wrap;html=1;" vertex="1" parent="Y9vOa5RN0gEG9IAq9d5h-15">
          <mxGeometry width="289" height="70" as="geometry" />
        </mxCell>
        <mxCell id="Y9vOa5RN0gEG9IAq9d5h-17" value="" style="endArrow=none;html=1;rounded=0;entryX=0.25;entryY=0;entryDx=0;entryDy=0;exitX=0.25;exitY=1;exitDx=0;exitDy=0;" edge="1" parent="Y9vOa5RN0gEG9IAq9d5h-15" source="Y9vOa5RN0gEG9IAq9d5h-16" target="Y9vOa5RN0gEG9IAq9d5h-16">
          <mxGeometry width="50" height="50" relative="1" as="geometry">
            <mxPoint x="370" y="140" as="sourcePoint" />
            <mxPoint x="420" y="90" as="targetPoint" />
          </mxGeometry>
        </mxCell>
        <mxCell id="Y9vOa5RN0gEG9IAq9d5h-18" value="D1" style="text;html=1;align=center;verticalAlign=middle;whiteSpace=wrap;rounded=0;rotation=-90;fontSize=23;fontStyle=1" vertex="1" parent="Y9vOa5RN0gEG9IAq9d5h-15">
          <mxGeometry x="10" y="20" width="60" height="30" as="geometry" />
        </mxCell>
        <mxCell id="Y9vOa5RN0gEG9IAq9d5h-19" value="" style="group" vertex="1" connectable="0" parent="1">
          <mxGeometry x="781" y="468.5" width="289" height="70" as="geometry" />
        </mxCell>
        <mxCell id="Y9vOa5RN0gEG9IAq9d5h-20" value="&lt;font style=&quot;font-size: 20px;&quot;&gt;&amp;nbsp; &amp;nbsp; &amp;nbsp; &amp;nbsp; &amp;nbsp; &amp;nbsp; Jadual Tempahan&lt;/font&gt;" style="rounded=0;whiteSpace=wrap;html=1;" vertex="1" parent="Y9vOa5RN0gEG9IAq9d5h-19">
          <mxGeometry width="289" height="70" as="geometry" />
        </mxCell>
        <mxCell id="Y9vOa5RN0gEG9IAq9d5h-21" value="" style="endArrow=none;html=1;rounded=0;entryX=0.25;entryY=0;entryDx=0;entryDy=0;exitX=0.25;exitY=1;exitDx=0;exitDy=0;" edge="1" parent="Y9vOa5RN0gEG9IAq9d5h-19" source="Y9vOa5RN0gEG9IAq9d5h-20" target="Y9vOa5RN0gEG9IAq9d5h-20">
          <mxGeometry width="50" height="50" relative="1" as="geometry">
            <mxPoint x="370" y="140" as="sourcePoint" />
            <mxPoint x="420" y="90" as="targetPoint" />
          </mxGeometry>
        </mxCell>
        <mxCell id="Y9vOa5RN0gEG9IAq9d5h-22" value="D3" style="text;html=1;align=center;verticalAlign=middle;whiteSpace=wrap;rounded=0;rotation=-90;fontSize=23;fontStyle=1" vertex="1" parent="Y9vOa5RN0gEG9IAq9d5h-19">
          <mxGeometry x="10" y="20" width="60" height="30" as="geometry" />
        </mxCell>
        <mxCell id="Y9vOa5RN0gEG9IAq9d5h-23" value="" style="group" vertex="1" connectable="0" parent="1">
          <mxGeometry x="784" y="281" width="289" height="70" as="geometry" />
        </mxCell>
        <mxCell id="Y9vOa5RN0gEG9IAq9d5h-24" value="&lt;font style=&quot;font-size: 20px;&quot;&gt;&amp;nbsp; &amp;nbsp; &amp;nbsp; &amp;nbsp; &amp;nbsp; Jadual Servis&lt;/font&gt;" style="rounded=0;whiteSpace=wrap;html=1;" vertex="1" parent="Y9vOa5RN0gEG9IAq9d5h-23">
          <mxGeometry width="289" height="70" as="geometry" />
        </mxCell>
        <mxCell id="Y9vOa5RN0gEG9IAq9d5h-25" value="" style="endArrow=none;html=1;rounded=0;entryX=0.25;entryY=0;entryDx=0;entryDy=0;exitX=0.25;exitY=1;exitDx=0;exitDy=0;" edge="1" parent="Y9vOa5RN0gEG9IAq9d5h-23" source="Y9vOa5RN0gEG9IAq9d5h-24" target="Y9vOa5RN0gEG9IAq9d5h-24">
          <mxGeometry width="50" height="50" relative="1" as="geometry">
            <mxPoint x="370" y="140" as="sourcePoint" />
            <mxPoint x="420" y="90" as="targetPoint" />
          </mxGeometry>
        </mxCell>
        <mxCell id="Y9vOa5RN0gEG9IAq9d5h-26" value="D2" style="text;html=1;align=center;verticalAlign=middle;whiteSpace=wrap;rounded=0;rotation=-90;fontSize=23;fontStyle=1" vertex="1" parent="Y9vOa5RN0gEG9IAq9d5h-23">
          <mxGeometry x="10" y="20" width="60" height="30" as="geometry" />
        </mxCell>
        <mxCell id="Y9vOa5RN0gEG9IAq9d5h-27" value="" style="group" vertex="1" connectable="0" parent="1">
          <mxGeometry x="784" y="631.5" width="289" height="70" as="geometry" />
        </mxCell>
        <mxCell id="Y9vOa5RN0gEG9IAq9d5h-28" value="&lt;font style=&quot;font-size: 20px;&quot;&gt;&amp;nbsp; &amp;nbsp; &amp;nbsp; &amp;nbsp; &amp;nbsp; Jadual&amp;nbsp;&lt;/font&gt;&lt;div&gt;&lt;font style=&quot;font-size: 20px;&quot;&gt;&amp;nbsp; &amp;nbsp; &amp;nbsp; &amp;nbsp; Laporan Servis&lt;/font&gt;&lt;/div&gt;" style="rounded=0;whiteSpace=wrap;html=1;" vertex="1" parent="Y9vOa5RN0gEG9IAq9d5h-27">
          <mxGeometry width="289" height="70" as="geometry" />
        </mxCell>
        <mxCell id="Y9vOa5RN0gEG9IAq9d5h-29" value="" style="endArrow=none;html=1;rounded=0;entryX=0.25;entryY=0;entryDx=0;entryDy=0;exitX=0.25;exitY=1;exitDx=0;exitDy=0;" edge="1" parent="Y9vOa5RN0gEG9IAq9d5h-27" source="Y9vOa5RN0gEG9IAq9d5h-28" target="Y9vOa5RN0gEG9IAq9d5h-28">
          <mxGeometry width="50" height="50" relative="1" as="geometry">
            <mxPoint x="370" y="140" as="sourcePoint" />
            <mxPoint x="420" y="90" as="targetPoint" />
          </mxGeometry>
        </mxCell>
        <mxCell id="Y9vOa5RN0gEG9IAq9d5h-30" value="D4" style="text;html=1;align=center;verticalAlign=middle;whiteSpace=wrap;rounded=0;rotation=-90;fontSize=23;fontStyle=1" vertex="1" parent="Y9vOa5RN0gEG9IAq9d5h-27">
          <mxGeometry x="10" y="20" width="60" height="30" as="geometry" />
        </mxCell>
        <mxCell id="Y9vOa5RN0gEG9IAq9d5h-31" value="" style="group" vertex="1" connectable="0" parent="1">
          <mxGeometry x="784" y="1166" width="289" height="70" as="geometry" />
        </mxCell>
        <mxCell id="Y9vOa5RN0gEG9IAq9d5h-32" value="&lt;font style=&quot;font-size: 20px;&quot;&gt;&amp;nbsp; &amp;nbsp; &amp;nbsp; &amp;nbsp; &amp;nbsp; Jadual Bahan &amp;amp; Stok&lt;/font&gt;" style="rounded=0;whiteSpace=wrap;html=1;" vertex="1" parent="Y9vOa5RN0gEG9IAq9d5h-31">
          <mxGeometry width="289" height="70" as="geometry" />
        </mxCell>
        <mxCell id="Y9vOa5RN0gEG9IAq9d5h-33" value="" style="endArrow=none;html=1;rounded=0;entryX=0.25;entryY=0;entryDx=0;entryDy=0;exitX=0.25;exitY=1;exitDx=0;exitDy=0;" edge="1" parent="Y9vOa5RN0gEG9IAq9d5h-31" source="Y9vOa5RN0gEG9IAq9d5h-32" target="Y9vOa5RN0gEG9IAq9d5h-32">
          <mxGeometry width="50" height="50" relative="1" as="geometry">
            <mxPoint x="370" y="140" as="sourcePoint" />
            <mxPoint x="420" y="90" as="targetPoint" />
          </mxGeometry>
        </mxCell>
        <mxCell id="Y9vOa5RN0gEG9IAq9d5h-34" value="D8" style="text;html=1;align=center;verticalAlign=middle;whiteSpace=wrap;rounded=0;rotation=-90;fontSize=23;fontStyle=1" vertex="1" parent="Y9vOa5RN0gEG9IAq9d5h-31">
          <mxGeometry x="10" y="20" width="60" height="30" as="geometry" />
        </mxCell>
        <mxCell id="Y9vOa5RN0gEG9IAq9d5h-35" value="" style="group" vertex="1" connectable="0" parent="1">
          <mxGeometry x="784" y="1006" width="289" height="70" as="geometry" />
        </mxCell>
        <mxCell id="Y9vOa5RN0gEG9IAq9d5h-36" value="&lt;font style=&quot;font-size: 20px;&quot;&gt;&amp;nbsp; &amp;nbsp; &amp;nbsp; &amp;nbsp; &amp;nbsp; &amp;nbsp; Jadual Pekerja&lt;/font&gt;" style="rounded=0;whiteSpace=wrap;html=1;" vertex="1" parent="Y9vOa5RN0gEG9IAq9d5h-35">
          <mxGeometry width="289" height="70" as="geometry" />
        </mxCell>
        <mxCell id="Y9vOa5RN0gEG9IAq9d5h-37" value="" style="endArrow=none;html=1;rounded=0;entryX=0.25;entryY=0;entryDx=0;entryDy=0;exitX=0.25;exitY=1;exitDx=0;exitDy=0;" edge="1" parent="Y9vOa5RN0gEG9IAq9d5h-35" source="Y9vOa5RN0gEG9IAq9d5h-36" target="Y9vOa5RN0gEG9IAq9d5h-36">
          <mxGeometry width="50" height="50" relative="1" as="geometry">
            <mxPoint x="370" y="140" as="sourcePoint" />
            <mxPoint x="420" y="90" as="targetPoint" />
          </mxGeometry>
        </mxCell>
        <mxCell id="Y9vOa5RN0gEG9IAq9d5h-38" value="D7" style="text;html=1;align=center;verticalAlign=middle;whiteSpace=wrap;rounded=0;rotation=-90;fontSize=23;fontStyle=1" vertex="1" parent="Y9vOa5RN0gEG9IAq9d5h-35">
          <mxGeometry x="10" y="20" width="60" height="30" as="geometry" />
        </mxCell>
        <mxCell id="Y9vOa5RN0gEG9IAq9d5h-39" value="" style="group" vertex="1" connectable="0" parent="1">
          <mxGeometry x="784" y="721" width="289" height="70" as="geometry" />
        </mxCell>
        <mxCell id="Y9vOa5RN0gEG9IAq9d5h-40" value="&lt;font style=&quot;font-size: 20px;&quot;&gt;&amp;nbsp; &amp;nbsp; &amp;nbsp; &amp;nbsp; &amp;nbsp; &amp;nbsp; &amp;nbsp;Maklumat Kewangan&lt;/font&gt;" style="rounded=0;whiteSpace=wrap;html=1;" vertex="1" parent="Y9vOa5RN0gEG9IAq9d5h-39">
          <mxGeometry width="289" height="70" as="geometry" />
        </mxCell>
        <mxCell id="Y9vOa5RN0gEG9IAq9d5h-41" value="" style="endArrow=none;html=1;rounded=0;entryX=0.25;entryY=0;entryDx=0;entryDy=0;exitX=0.25;exitY=1;exitDx=0;exitDy=0;" edge="1" parent="Y9vOa5RN0gEG9IAq9d5h-39" source="Y9vOa5RN0gEG9IAq9d5h-40" target="Y9vOa5RN0gEG9IAq9d5h-40">
          <mxGeometry width="50" height="50" relative="1" as="geometry">
            <mxPoint x="370" y="140" as="sourcePoint" />
            <mxPoint x="420" y="90" as="targetPoint" />
          </mxGeometry>
        </mxCell>
        <mxCell id="Y9vOa5RN0gEG9IAq9d5h-42" value="D6" style="text;html=1;align=center;verticalAlign=middle;whiteSpace=wrap;rounded=0;rotation=-90;fontSize=23;fontStyle=1" vertex="1" parent="Y9vOa5RN0gEG9IAq9d5h-39">
          <mxGeometry x="10" y="20" width="60" height="30" as="geometry" />
        </mxCell>
        <mxCell id="Y9vOa5RN0gEG9IAq9d5h-43" value="" style="group" vertex="1" connectable="0" parent="1">
          <mxGeometry x="784" y="866" width="289" height="70" as="geometry" />
        </mxCell>
        <mxCell id="Y9vOa5RN0gEG9IAq9d5h-44" value="&lt;font style=&quot;font-size: 20px;&quot;&gt;&amp;nbsp; &amp;nbsp; &amp;nbsp; &amp;nbsp; &amp;nbsp; Jadual Laporan&lt;/font&gt;" style="rounded=0;whiteSpace=wrap;html=1;" vertex="1" parent="Y9vOa5RN0gEG9IAq9d5h-43">
          <mxGeometry width="289" height="70" as="geometry" />
        </mxCell>
        <mxCell id="Y9vOa5RN0gEG9IAq9d5h-45" value="" style="endArrow=none;html=1;rounded=0;entryX=0.25;entryY=0;entryDx=0;entryDy=0;exitX=0.25;exitY=1;exitDx=0;exitDy=0;" edge="1" parent="Y9vOa5RN0gEG9IAq9d5h-43" source="Y9vOa5RN0gEG9IAq9d5h-44" target="Y9vOa5RN0gEG9IAq9d5h-44">
          <mxGeometry width="50" height="50" relative="1" as="geometry">
            <mxPoint x="370" y="140" as="sourcePoint" />
            <mxPoint x="420" y="90" as="targetPoint" />
          </mxGeometry>
        </mxCell>
        <mxCell id="Y9vOa5RN0gEG9IAq9d5h-46" value="D5" style="text;html=1;align=center;verticalAlign=middle;whiteSpace=wrap;rounded=0;rotation=-90;fontSize=23;fontStyle=1" vertex="1" parent="Y9vOa5RN0gEG9IAq9d5h-43">
          <mxGeometry x="10" y="20" width="60" height="30" as="geometry" />
        </mxCell>
        <mxCell id="Y9vOa5RN0gEG9IAq9d5h-47" value="" style="group" vertex="1" connectable="0" parent="1">
          <mxGeometry x="494" y="132" width="200" height="100" as="geometry" />
        </mxCell>
        <mxCell id="Y9vOa5RN0gEG9IAq9d5h-48" value="&lt;font style=&quot;font-size: 17px;&quot;&gt;1.0&lt;/font&gt;" style="swimlane;whiteSpace=wrap;html=1;" vertex="1" parent="Y9vOa5RN0gEG9IAq9d5h-47">
          <mxGeometry width="200" height="100" as="geometry" />
        </mxCell>
        <mxCell id="Y9vOa5RN0gEG9IAq9d5h-49" value="&lt;font style=&quot;font-size: 16px;&quot;&gt;Pendaftaran Pelanggan&lt;/font&gt;" style="text;html=1;align=center;verticalAlign=middle;resizable=0;points=[];autosize=1;strokeColor=none;fillColor=none;" vertex="1" parent="Y9vOa5RN0gEG9IAq9d5h-47">
          <mxGeometry x="5" y="46" width="190" height="30" as="geometry" />
        </mxCell>
        <mxCell id="Y9vOa5RN0gEG9IAq9d5h-50" value="" style="group" vertex="1" connectable="0" parent="1">
          <mxGeometry x="495" y="406" width="200" height="100" as="geometry" />
        </mxCell>
        <mxCell id="Y9vOa5RN0gEG9IAq9d5h-51" value="&lt;font style=&quot;font-size: 17px;&quot;&gt;3.0&lt;/font&gt;" style="swimlane;whiteSpace=wrap;html=1;" vertex="1" parent="Y9vOa5RN0gEG9IAq9d5h-50">
          <mxGeometry width="200" height="100" as="geometry" />
        </mxCell>
        <mxCell id="Y9vOa5RN0gEG9IAq9d5h-52" value="&lt;span style=&quot;font-size: 16px;&quot;&gt;Tempah Servis&lt;/span&gt;" style="text;html=1;align=center;verticalAlign=middle;resizable=0;points=[];autosize=1;strokeColor=none;fillColor=none;" vertex="1" parent="Y9vOa5RN0gEG9IAq9d5h-50">
          <mxGeometry x="35" y="46" width="130" height="30" as="geometry" />
        </mxCell>
        <mxCell id="Y9vOa5RN0gEG9IAq9d5h-53" value="" style="group" vertex="1" connectable="0" parent="1">
          <mxGeometry x="495" y="557" width="205" height="100" as="geometry" />
        </mxCell>
        <mxCell id="Y9vOa5RN0gEG9IAq9d5h-54" value="&lt;font style=&quot;font-size: 17px;&quot;&gt;4.0&lt;/font&gt;" style="swimlane;whiteSpace=wrap;html=1;" vertex="1" parent="Y9vOa5RN0gEG9IAq9d5h-53">
          <mxGeometry width="200" height="100" as="geometry" />
        </mxCell>
        <mxCell id="Y9vOa5RN0gEG9IAq9d5h-55" value="&lt;font style=&quot;font-size: 16px;&quot;&gt;Semak Sejarah Servis&lt;/font&gt;" style="text;html=1;align=center;verticalAlign=middle;resizable=0;points=[];autosize=1;strokeColor=none;fillColor=none;" vertex="1" parent="Y9vOa5RN0gEG9IAq9d5h-53">
          <mxGeometry x="10" y="46" width="180" height="30" as="geometry" />
        </mxCell>
        <mxCell id="Y9vOa5RN0gEG9IAq9d5h-56" value="" style="group" vertex="1" connectable="0" parent="1">
          <mxGeometry x="495" y="706" width="200" height="100" as="geometry" />
        </mxCell>
        <mxCell id="Y9vOa5RN0gEG9IAq9d5h-57" value="&lt;font style=&quot;font-size: 17px;&quot;&gt;5.0&lt;/font&gt;" style="swimlane;whiteSpace=wrap;html=1;" vertex="1" parent="Y9vOa5RN0gEG9IAq9d5h-56">
          <mxGeometry width="200" height="100" as="geometry" />
        </mxCell>
        <mxCell id="Y9vOa5RN0gEG9IAq9d5h-58" value="&lt;span style=&quot;font-size: 16px;&quot;&gt;Dapat Invois&lt;/span&gt;" style="text;html=1;align=center;verticalAlign=middle;resizable=0;points=[];autosize=1;strokeColor=none;fillColor=none;" vertex="1" parent="Y9vOa5RN0gEG9IAq9d5h-56">
          <mxGeometry x="45" y="46" width="110" height="30" as="geometry" />
        </mxCell>
        <mxCell id="Y9vOa5RN0gEG9IAq9d5h-59" value="" style="group" vertex="1" connectable="0" parent="1">
          <mxGeometry x="495" y="266" width="200" height="100" as="geometry" />
        </mxCell>
        <mxCell id="Y9vOa5RN0gEG9IAq9d5h-60" value="&lt;font style=&quot;font-size: 17px;&quot;&gt;2.0&lt;/font&gt;" style="swimlane;whiteSpace=wrap;html=1;startSize=23;" vertex="1" parent="Y9vOa5RN0gEG9IAq9d5h-59">
          <mxGeometry width="200" height="100" as="geometry" />
        </mxCell>
        <mxCell id="Y9vOa5RN0gEG9IAq9d5h-61" value="&lt;span style=&quot;font-size: 16px;&quot;&gt;Semak Status&amp;nbsp;&lt;/span&gt;&lt;div&gt;&lt;span style=&quot;font-size: 16px;&quot;&gt;Kenderaan&lt;/span&gt;&lt;/div&gt;" style="text;html=1;align=center;verticalAlign=middle;resizable=0;points=[];autosize=1;strokeColor=none;fillColor=none;" vertex="1" parent="Y9vOa5RN0gEG9IAq9d5h-59">
          <mxGeometry x="35" y="36" width="130" height="50" as="geometry" />
        </mxCell>
        <mxCell id="Y9vOa5RN0gEG9IAq9d5h-62" style="edgeStyle=orthogonalEdgeStyle;rounded=0;orthogonalLoop=1;jettySize=auto;html=1;exitX=1;exitY=0.5;exitDx=0;exitDy=0;entryX=-0.003;entryY=0.644;entryDx=0;entryDy=0;entryPerimeter=0;" edge="1" parent="1" source="Y9vOa5RN0gEG9IAq9d5h-5" target="Y9vOa5RN0gEG9IAq9d5h-49">
          <mxGeometry relative="1" as="geometry" />
        </mxCell>
        <mxCell id="Y9vOa5RN0gEG9IAq9d5h-63" style="edgeStyle=orthogonalEdgeStyle;rounded=0;orthogonalLoop=1;jettySize=auto;html=1;entryX=0;entryY=0.5;entryDx=0;entryDy=0;" edge="1" parent="1" source="Y9vOa5RN0gEG9IAq9d5h-49" target="Y9vOa5RN0gEG9IAq9d5h-16">
          <mxGeometry relative="1" as="geometry" />
        </mxCell>
        <mxCell id="Y9vOa5RN0gEG9IAq9d5h-64" value="" style="group" vertex="1" connectable="0" parent="1">
          <mxGeometry x="1203" y="1250" width="205" height="100" as="geometry" />
        </mxCell>
        <mxCell id="Y9vOa5RN0gEG9IAq9d5h-65" value="&lt;font style=&quot;font-size: 17px;&quot;&gt;15.0&lt;/font&gt;" style="swimlane;whiteSpace=wrap;html=1;" vertex="1" parent="Y9vOa5RN0gEG9IAq9d5h-64">
          <mxGeometry width="200" height="100" as="geometry" />
        </mxCell>
        <mxCell id="Y9vOa5RN0gEG9IAq9d5h-66" value="&lt;font style=&quot;font-size: 16px;&quot;&gt;Pengurusan Stok &amp;amp; Bahan&lt;/font&gt;" style="text;html=1;align=center;verticalAlign=middle;resizable=0;points=[];autosize=1;strokeColor=none;fillColor=none;" vertex="1" parent="Y9vOa5RN0gEG9IAq9d5h-64">
          <mxGeometry x="-5" y="46" width="210" height="30" as="geometry" />
        </mxCell>
        <mxCell id="Y9vOa5RN0gEG9IAq9d5h-67" value="" style="group" vertex="1" connectable="0" parent="1">
          <mxGeometry x="1214" y="490" width="200" height="100" as="geometry" />
        </mxCell>
        <mxCell id="Y9vOa5RN0gEG9IAq9d5h-68" value="&lt;font style=&quot;font-size: 17px;&quot;&gt;8.0&lt;/font&gt;" style="swimlane;whiteSpace=wrap;html=1;" vertex="1" parent="Y9vOa5RN0gEG9IAq9d5h-67">
          <mxGeometry width="200" height="100" as="geometry" />
        </mxCell>
        <mxCell id="Y9vOa5RN0gEG9IAq9d5h-69" value="&lt;font style=&quot;font-size: 16px;&quot;&gt;Rekod Maklumat Servis&lt;/font&gt;" style="text;html=1;align=center;verticalAlign=middle;resizable=0;points=[];autosize=1;strokeColor=none;fillColor=none;" vertex="1" parent="Y9vOa5RN0gEG9IAq9d5h-67">
          <mxGeometry x="5" y="46" width="190" height="30" as="geometry" />
        </mxCell>
        <mxCell id="Y9vOa5RN0gEG9IAq9d5h-70" value="" style="group" vertex="1" connectable="0" parent="1">
          <mxGeometry x="1218" y="366" width="205" height="100" as="geometry" />
        </mxCell>
        <mxCell id="Y9vOa5RN0gEG9IAq9d5h-71" value="&lt;font style=&quot;font-size: 17px;&quot;&gt;9.0&lt;/font&gt;" style="swimlane;whiteSpace=wrap;html=1;" vertex="1" parent="Y9vOa5RN0gEG9IAq9d5h-70">
          <mxGeometry width="200" height="100" as="geometry" />
        </mxCell>
        <mxCell id="Y9vOa5RN0gEG9IAq9d5h-72" value="&lt;font style=&quot;font-size: 16px;&quot;&gt;Kemas Kini Status Servis&lt;/font&gt;" style="text;html=1;align=center;verticalAlign=middle;resizable=0;points=[];autosize=1;strokeColor=none;fillColor=none;" vertex="1" parent="Y9vOa5RN0gEG9IAq9d5h-70">
          <mxGeometry y="46" width="200" height="30" as="geometry" />
        </mxCell>
        <mxCell id="Y9vOa5RN0gEG9IAq9d5h-73" value="" style="group" vertex="1" connectable="0" parent="1">
          <mxGeometry x="1205.5" y="1110" width="200" height="100" as="geometry" />
        </mxCell>
        <mxCell id="Y9vOa5RN0gEG9IAq9d5h-74" value="&lt;font style=&quot;font-size: 17px;&quot;&gt;13.0&lt;/font&gt;" style="swimlane;whiteSpace=wrap;html=1;" vertex="1" parent="Y9vOa5RN0gEG9IAq9d5h-73">
          <mxGeometry width="200" height="100" as="geometry" />
        </mxCell>
        <mxCell id="Y9vOa5RN0gEG9IAq9d5h-75" value="&lt;span style=&quot;font-size: 16px;&quot;&gt;Urus Akaun&amp;nbsp;&lt;/span&gt;&lt;div&gt;&lt;span style=&quot;font-size: 16px;&quot;&gt;Pekerja Bengkel&lt;/span&gt;&lt;/div&gt;" style="text;html=1;align=center;verticalAlign=middle;resizable=0;points=[];autosize=1;strokeColor=none;fillColor=none;" vertex="1" parent="Y9vOa5RN0gEG9IAq9d5h-73">
          <mxGeometry x="30" y="36" width="140" height="50" as="geometry" />
        </mxCell>
        <mxCell id="Y9vOa5RN0gEG9IAq9d5h-76" value="" style="group" vertex="1" connectable="0" parent="1">
          <mxGeometry x="1205.5" y="972" width="205" height="100" as="geometry" />
        </mxCell>
        <mxCell id="Y9vOa5RN0gEG9IAq9d5h-77" value="&lt;font style=&quot;font-size: 17px;&quot;&gt;11.0&lt;/font&gt;" style="swimlane;whiteSpace=wrap;html=1;" vertex="1" parent="Y9vOa5RN0gEG9IAq9d5h-76">
          <mxGeometry width="200" height="100" as="geometry" />
        </mxCell>
        <mxCell id="Y9vOa5RN0gEG9IAq9d5h-78" value="&lt;span style=&quot;font-size: 16px;&quot;&gt;Penjanaan Laporan&amp;nbsp;&lt;/span&gt;&lt;div&gt;&lt;span style=&quot;font-size: 16px;&quot;&gt;Bulanan&lt;/span&gt;&lt;/div&gt;" style="text;html=1;align=center;verticalAlign=middle;resizable=0;points=[];autosize=1;strokeColor=none;fillColor=none;" vertex="1" parent="Y9vOa5RN0gEG9IAq9d5h-76">
          <mxGeometry x="15" y="36" width="170" height="50" as="geometry" />
        </mxCell>
        <mxCell id="Y9vOa5RN0gEG9IAq9d5h-79" value="" style="group" vertex="1" connectable="0" parent="1">
          <mxGeometry x="1562" y="166" width="200" height="100" as="geometry" />
        </mxCell>
        <mxCell id="Y9vOa5RN0gEG9IAq9d5h-80" value="&lt;font style=&quot;font-size: 17px;&quot;&gt;14.0&lt;/font&gt;" style="swimlane;whiteSpace=wrap;html=1;" vertex="1" parent="Y9vOa5RN0gEG9IAq9d5h-79">
          <mxGeometry width="200" height="100" as="geometry" />
        </mxCell>
        <mxCell id="Y9vOa5RN0gEG9IAq9d5h-81" value="&lt;font style=&quot;font-size: 16px;&quot;&gt;Urus Data Pelanggan&lt;/font&gt;" style="text;html=1;align=center;verticalAlign=middle;resizable=0;points=[];autosize=1;strokeColor=none;fillColor=none;" vertex="1" parent="Y9vOa5RN0gEG9IAq9d5h-79">
          <mxGeometry x="10" y="46" width="180" height="30" as="geometry" />
        </mxCell>
        <mxCell id="Y9vOa5RN0gEG9IAq9d5h-82" value="" style="group" vertex="1" connectable="0" parent="1">
          <mxGeometry x="1209.5" y="839" width="205" height="100" as="geometry" />
        </mxCell>
        <mxCell id="Y9vOa5RN0gEG9IAq9d5h-83" value="&lt;font style=&quot;font-size: 17px;&quot;&gt;12.0&lt;/font&gt;" style="swimlane;whiteSpace=wrap;html=1;" vertex="1" parent="Y9vOa5RN0gEG9IAq9d5h-82">
          <mxGeometry width="200" height="100" as="geometry" />
        </mxCell>
        <mxCell id="Y9vOa5RN0gEG9IAq9d5h-84" value="&lt;font style=&quot;font-size: 16px;&quot;&gt;Semak Rekod&amp;nbsp;&lt;/font&gt;&lt;div&gt;&lt;font style=&quot;font-size: 16px;&quot;&gt;Pendapatan&lt;/font&gt;&lt;/div&gt;" style="text;html=1;align=center;verticalAlign=middle;resizable=0;points=[];autosize=1;strokeColor=none;fillColor=none;" vertex="1" parent="Y9vOa5RN0gEG9IAq9d5h-82">
          <mxGeometry x="35" y="36" width="130" height="50" as="geometry" />
        </mxCell>
        <mxCell id="Y9vOa5RN0gEG9IAq9d5h-85" style="edgeStyle=orthogonalEdgeStyle;rounded=0;orthogonalLoop=1;jettySize=auto;html=1;exitX=0;exitY=0.5;exitDx=0;exitDy=0;" edge="1" parent="1" source="Y9vOa5RN0gEG9IAq9d5h-24">
          <mxGeometry relative="1" as="geometry">
            <mxPoint x="691" y="316" as="targetPoint" />
          </mxGeometry>
        </mxCell>
        <mxCell id="Y9vOa5RN0gEG9IAq9d5h-86" style="edgeStyle=orthogonalEdgeStyle;rounded=0;orthogonalLoop=1;jettySize=auto;html=1;exitX=1;exitY=0.5;exitDx=0;exitDy=0;entryX=0;entryY=0.5;entryDx=0;entryDy=0;" edge="1" parent="1" source="Y9vOa5RN0gEG9IAq9d5h-51" target="Y9vOa5RN0gEG9IAq9d5h-20">
          <mxGeometry relative="1" as="geometry">
            <mxPoint x="875" y="466" as="targetPoint" />
          </mxGeometry>
        </mxCell>
        <mxCell id="Y9vOa5RN0gEG9IAq9d5h-87" style="edgeStyle=orthogonalEdgeStyle;rounded=0;orthogonalLoop=1;jettySize=auto;html=1;entryX=0.5;entryY=1;entryDx=0;entryDy=0;exitX=0;exitY=0.5;exitDx=0;exitDy=0;" edge="1" parent="1" source="Y9vOa5RN0gEG9IAq9d5h-68" target="Y9vOa5RN0gEG9IAq9d5h-24">
          <mxGeometry relative="1" as="geometry">
            <Array as="points">
              <mxPoint x="1196" y="606" />
              <mxPoint x="1092" y="606" />
              <mxPoint x="1092" y="386" />
              <mxPoint x="928" y="386" />
            </Array>
          </mxGeometry>
        </mxCell>
        <mxCell id="Y9vOa5RN0gEG9IAq9d5h-88" style="edgeStyle=orthogonalEdgeStyle;rounded=0;orthogonalLoop=1;jettySize=auto;html=1;exitX=-0.002;exitY=0.565;exitDx=0;exitDy=0;entryX=1;entryY=0.25;entryDx=0;entryDy=0;exitPerimeter=0;" edge="1" parent="1" source="Y9vOa5RN0gEG9IAq9d5h-72" target="Y9vOa5RN0gEG9IAq9d5h-24">
          <mxGeometry relative="1" as="geometry">
            <Array as="points">
              <mxPoint x="1218" y="476" />
              <mxPoint x="1110" y="476" />
              <mxPoint x="1110" y="299" />
            </Array>
          </mxGeometry>
        </mxCell>
        <mxCell id="Y9vOa5RN0gEG9IAq9d5h-89" style="edgeStyle=orthogonalEdgeStyle;rounded=0;orthogonalLoop=1;jettySize=auto;html=1;entryX=0;entryY=0.5;entryDx=0;entryDy=0;exitX=1;exitY=0.5;exitDx=0;exitDy=0;" edge="1" parent="1" source="Y9vOa5RN0gEG9IAq9d5h-44" target="Y9vOa5RN0gEG9IAq9d5h-77">
          <mxGeometry relative="1" as="geometry">
            <mxPoint x="1061" y="969" as="sourcePoint" />
          </mxGeometry>
        </mxCell>
        <mxCell id="Y9vOa5RN0gEG9IAq9d5h-90" style="edgeStyle=orthogonalEdgeStyle;rounded=0;orthogonalLoop=1;jettySize=auto;html=1;entryX=0;entryY=0.5;entryDx=0;entryDy=0;exitX=1;exitY=0.5;exitDx=0;exitDy=0;" edge="1" parent="1" source="Y9vOa5RN0gEG9IAq9d5h-40" target="Y9vOa5RN0gEG9IAq9d5h-83">
          <mxGeometry relative="1" as="geometry">
            <mxPoint x="1164" y="819" as="sourcePoint" />
          </mxGeometry>
        </mxCell>
        <mxCell id="Y9vOa5RN0gEG9IAq9d5h-91" style="edgeStyle=orthogonalEdgeStyle;rounded=0;orthogonalLoop=1;jettySize=auto;html=1;exitX=0;exitY=0.5;exitDx=0;exitDy=0;entryX=1;entryY=0.5;entryDx=0;entryDy=0;" edge="1" parent="1" source="Y9vOa5RN0gEG9IAq9d5h-74" target="Y9vOa5RN0gEG9IAq9d5h-36">
          <mxGeometry relative="1" as="geometry" />
        </mxCell>
        <mxCell id="Y9vOa5RN0gEG9IAq9d5h-92" style="edgeStyle=orthogonalEdgeStyle;rounded=0;orthogonalLoop=1;jettySize=auto;html=1;entryX=1;entryY=0.5;entryDx=0;entryDy=0;" edge="1" parent="1" source="Y9vOa5RN0gEG9IAq9d5h-80" target="Y9vOa5RN0gEG9IAq9d5h-16">
          <mxGeometry relative="1" as="geometry">
            <Array as="points">
              <mxPoint x="1510" y="192" />
            </Array>
          </mxGeometry>
        </mxCell>
        <mxCell id="Y9vOa5RN0gEG9IAq9d5h-93" style="edgeStyle=orthogonalEdgeStyle;rounded=0;orthogonalLoop=1;jettySize=auto;html=1;entryX=1;entryY=0.5;entryDx=0;entryDy=0;exitX=0;exitY=0.5;exitDx=0;exitDy=0;" edge="1" parent="1" source="Y9vOa5RN0gEG9IAq9d5h-28" target="Y9vOa5RN0gEG9IAq9d5h-54">
          <mxGeometry relative="1" as="geometry">
            <mxPoint x="750" y="575" as="targetPoint" />
            <mxPoint x="779" y="669" as="sourcePoint" />
          </mxGeometry>
        </mxCell>
        <mxCell id="Y9vOa5RN0gEG9IAq9d5h-94" style="edgeStyle=orthogonalEdgeStyle;rounded=0;orthogonalLoop=1;jettySize=auto;html=1;exitX=0;exitY=0.5;exitDx=0;exitDy=0;entryX=1;entryY=0.5;entryDx=0;entryDy=0;" edge="1" parent="1" source="Y9vOa5RN0gEG9IAq9d5h-40" target="Y9vOa5RN0gEG9IAq9d5h-57">
          <mxGeometry relative="1" as="geometry">
            <mxPoint x="710" y="780" as="targetPoint" />
          </mxGeometry>
        </mxCell>
        <mxCell id="Y9vOa5RN0gEG9IAq9d5h-95" style="edgeStyle=orthogonalEdgeStyle;rounded=0;orthogonalLoop=1;jettySize=auto;html=1;entryX=1;entryY=0.5;entryDx=0;entryDy=0;" edge="1" parent="1" source="Y9vOa5RN0gEG9IAq9d5h-66" target="Y9vOa5RN0gEG9IAq9d5h-32">
          <mxGeometry relative="1" as="geometry" />
        </mxCell>
        <mxCell id="Y9vOa5RN0gEG9IAq9d5h-96" value="Maklumat&lt;div&gt;&amp;nbsp;Peribadi&lt;/div&gt;" style="text;html=1;align=center;verticalAlign=middle;resizable=0;points=[];autosize=1;strokeColor=none;fillColor=none;fontSize=16;" vertex="1" parent="1">
          <mxGeometry x="387" y="150" width="87" height="50" as="geometry" />
        </mxCell>
        <mxCell id="Y9vOa5RN0gEG9IAq9d5h-97" value="Data&amp;nbsp;&lt;div&gt;Kewangan&lt;/div&gt;" style="text;html=1;align=center;verticalAlign=middle;resizable=0;points=[];autosize=1;strokeColor=none;fillColor=none;fontSize=16;" vertex="1" parent="1">
          <mxGeometry x="1086.5" y="701.5" width="94" height="50" as="geometry" />
        </mxCell>
        <mxCell id="Y9vOa5RN0gEG9IAq9d5h-98" value="Resit" style="text;html=1;align=center;verticalAlign=middle;resizable=0;points=[];autosize=1;strokeColor=none;fillColor=none;fontSize=16;" vertex="1" parent="1">
          <mxGeometry x="404" y="716" width="54" height="31" as="geometry" />
        </mxCell>
        <mxCell id="Y9vOa5RN0gEG9IAq9d5h-99" value="Invois&amp;nbsp;&lt;div&gt;yang&lt;br&gt;&lt;div&gt;Diproses&lt;/div&gt;&lt;/div&gt;" style="text;html=1;align=center;verticalAlign=middle;resizable=0;points=[];autosize=1;strokeColor=none;fillColor=none;fontSize=16;" vertex="1" parent="1">
          <mxGeometry x="702.5" y="692.5" width="81" height="70" as="geometry" />
        </mxCell>
        <mxCell id="Y9vOa5RN0gEG9IAq9d5h-100" value="Maklumat&lt;div&gt;Pelanggan&lt;/div&gt;&lt;div&gt;Yang&amp;nbsp;&lt;/div&gt;&lt;div&gt;Diproses&lt;/div&gt;" style="text;html=1;align=center;verticalAlign=middle;resizable=0;points=[];autosize=1;strokeColor=none;fillColor=none;fontSize=16;" vertex="1" parent="1">
          <mxGeometry x="694" y="99" width="95" height="89" as="geometry" />
        </mxCell>
        <mxCell id="Y9vOa5RN0gEG9IAq9d5h-101" value="Status&amp;nbsp;&lt;div&gt;Keadaan&amp;nbsp;&lt;/div&gt;&lt;div&gt;Kereta&lt;/div&gt;" style="text;html=1;align=center;verticalAlign=middle;resizable=0;points=[];autosize=1;strokeColor=none;fillColor=none;fontSize=16;" vertex="1" parent="1">
          <mxGeometry x="699" y="244" width="87" height="70" as="geometry" />
        </mxCell>
        <mxCell id="VaZY3IhimDMzJgFtXuwo-1" value="Maklumat&amp;nbsp;&lt;div&gt;Pelanggan&amp;nbsp;&lt;/div&gt;" style="text;html=1;align=center;verticalAlign=middle;resizable=0;points=[];autosize=1;strokeColor=none;fillColor=none;fontSize=16;" vertex="1" parent="1">
          <mxGeometry x="1407" y="554" width="99" height="50" as="geometry" />
        </mxCell>
        <mxCell id="VaZY3IhimDMzJgFtXuwo-2" value="Maklumat&amp;nbsp;&lt;div&gt;Pelanggan&amp;nbsp;&lt;div&gt;yang&amp;nbsp;&lt;/div&gt;&lt;div&gt;diproses&lt;/div&gt;&lt;/div&gt;" style="text;html=1;align=center;verticalAlign=middle;resizable=0;points=[];autosize=1;strokeColor=none;fillColor=none;fontSize=16;" vertex="1" parent="1">
          <mxGeometry x="1097" y="513" width="99" height="89" as="geometry" />
        </mxCell>
        <mxCell id="VaZY3IhimDMzJgFtXuwo-3" value="&lt;div&gt;Status Servis&amp;nbsp;&lt;div&gt;yang&amp;nbsp;&lt;/div&gt;&lt;div&gt;dikemaskini&lt;/div&gt;&lt;/div&gt;" style="text;html=1;align=center;verticalAlign=middle;resizable=0;points=[];autosize=1;strokeColor=none;fillColor=none;fontSize=16;" vertex="1" parent="1">
          <mxGeometry x="1436" y="436" width="117" height="70" as="geometry" />
        </mxCell>
        <mxCell id="VaZY3IhimDMzJgFtXuwo-4" value="&lt;div&gt;Status Servis&amp;nbsp;&lt;div&gt;yang&amp;nbsp;&lt;/div&gt;&lt;div&gt;diproses&lt;/div&gt;&lt;/div&gt;" style="text;html=1;align=center;verticalAlign=middle;resizable=0;points=[];autosize=1;strokeColor=none;fillColor=none;fontSize=16;" vertex="1" parent="1">
          <mxGeometry x="1109" y="398" width="117" height="70" as="geometry" />
        </mxCell>
        <mxCell id="rGTYj-KhPwEEF0hC5yKi-1" value="" style="group" vertex="1" connectable="0" parent="1">
          <mxGeometry x="1214" y="606" width="200" height="100" as="geometry" />
        </mxCell>
        <mxCell id="rGTYj-KhPwEEF0hC5yKi-2" value="&lt;font style=&quot;font-size: 17px;&quot;&gt;7.0&lt;/font&gt;" style="swimlane;whiteSpace=wrap;html=1;" vertex="1" parent="rGTYj-KhPwEEF0hC5yKi-1">
          <mxGeometry width="200" height="100" as="geometry" />
        </mxCell>
        <mxCell id="rGTYj-KhPwEEF0hC5yKi-3" value="&lt;span style=&quot;font-size: 16px; background-color: transparent; color: light-dark(rgb(0, 0, 0), rgb(255, 255, 255));&quot;&gt;Menerima dan&lt;/span&gt;&lt;div&gt;&lt;span style=&quot;font-size: 16px; background-color: transparent; color: light-dark(rgb(0, 0, 0), rgb(255, 255, 255));&quot;&gt;memilih&amp;nbsp;&lt;/span&gt;&lt;div&gt;&lt;font style=&quot;font-size: 16px;&quot;&gt;tempahan baharu&lt;/font&gt;&lt;/div&gt;&lt;/div&gt;" style="text;html=1;align=center;verticalAlign=middle;resizable=0;points=[];autosize=1;strokeColor=none;fillColor=none;" vertex="1" parent="rGTYj-KhPwEEF0hC5yKi-1">
          <mxGeometry x="29" y="26" width="143" height="70" as="geometry" />
        </mxCell>
        <mxCell id="rGTYj-KhPwEEF0hC5yKi-4" value="" style="group" vertex="1" connectable="0" parent="1">
          <mxGeometry x="1847" y="502" width="200" height="100" as="geometry" />
        </mxCell>
        <mxCell id="rGTYj-KhPwEEF0hC5yKi-5" value="&lt;font style=&quot;font-size: 17px;&quot;&gt;10.0&lt;/font&gt;" style="swimlane;whiteSpace=wrap;html=1;" vertex="1" parent="rGTYj-KhPwEEF0hC5yKi-4">
          <mxGeometry width="200" height="100" as="geometry" />
        </mxCell>
        <mxCell id="gM6pwhn-xmijrrsbZyzp-16" value="Semak dan&amp;nbsp;&lt;div&gt;Kemaskini Alat Stok&lt;/div&gt;" style="text;html=1;align=center;verticalAlign=middle;resizable=0;points=[];autosize=1;strokeColor=none;fillColor=none;fontSize=16;" vertex="1" parent="rGTYj-KhPwEEF0hC5yKi-5">
          <mxGeometry x="12" y="31" width="159" height="50" as="geometry" />
        </mxCell>
        <mxCell id="rGTYj-KhPwEEF0hC5yKi-9" value="" style="group" vertex="1" connectable="0" parent="1">
          <mxGeometry x="1216" y="249" width="205" height="100" as="geometry" />
        </mxCell>
        <mxCell id="rGTYj-KhPwEEF0hC5yKi-16" style="edgeStyle=orthogonalEdgeStyle;rounded=0;orthogonalLoop=1;jettySize=auto;html=1;exitX=0;exitY=0.5;exitDx=0;exitDy=0;fontSize=12;startSize=8;endSize=8;" edge="1" parent="rGTYj-KhPwEEF0hC5yKi-9" source="rGTYj-KhPwEEF0hC5yKi-10">
          <mxGeometry relative="1" as="geometry">
            <mxPoint x="-139.98883928571422" y="-30.60825892857133" as="targetPoint" />
            <Array as="points">
              <mxPoint x="-71" y="50" />
              <mxPoint x="-71" y="-31" />
            </Array>
          </mxGeometry>
        </mxCell>
        <mxCell id="rGTYj-KhPwEEF0hC5yKi-10" value="&lt;font style=&quot;font-size: 17px;&quot;&gt;6.0&lt;/font&gt;" style="swimlane;whiteSpace=wrap;html=1;" vertex="1" parent="rGTYj-KhPwEEF0hC5yKi-9">
          <mxGeometry width="200" height="100" as="geometry" />
        </mxCell>
        <mxCell id="rGTYj-KhPwEEF0hC5yKi-11" value="&lt;font style=&quot;font-size: 16px;&quot;&gt;Log Masuk&lt;/font&gt;" style="text;html=1;align=center;verticalAlign=middle;resizable=0;points=[];autosize=1;strokeColor=none;fillColor=none;" vertex="1" parent="rGTYj-KhPwEEF0hC5yKi-9">
          <mxGeometry x="52" y="46" width="96" height="31" as="geometry" />
        </mxCell>
        <mxCell id="rGTYj-KhPwEEF0hC5yKi-14" style="edgeStyle=orthogonalEdgeStyle;rounded=0;orthogonalLoop=1;jettySize=auto;html=1;exitX=1;exitY=0;exitDx=0;exitDy=0;fontSize=12;startSize=8;endSize=8;" edge="1" parent="1" source="Y9vOa5RN0gEG9IAq9d5h-8">
          <mxGeometry relative="1" as="geometry">
            <mxPoint x="1418" y="309" as="targetPoint" />
            <Array as="points">
              <mxPoint x="1660" y="351" />
              <mxPoint x="1487" y="351" />
              <mxPoint x="1487" y="309" />
            </Array>
          </mxGeometry>
        </mxCell>
        <mxCell id="rGTYj-KhPwEEF0hC5yKi-15" value="Maklumat&lt;div&gt;&amp;nbsp;Pekerja&lt;/div&gt;" style="text;html=1;align=center;verticalAlign=middle;resizable=0;points=[];autosize=1;strokeColor=none;fillColor=none;fontSize=16;" vertex="1" parent="1">
          <mxGeometry x="1515.5" y="293.5" width="87" height="50" as="geometry" />
        </mxCell>
        <mxCell id="rGTYj-KhPwEEF0hC5yKi-17" value="Maklumat Data yang&lt;div&gt;&amp;nbsp;Dikemaskini&lt;/div&gt;" style="text;html=1;align=center;verticalAlign=middle;resizable=0;points=[];autosize=1;strokeColor=none;fillColor=none;fontSize=16;" vertex="1" parent="1">
          <mxGeometry x="1549.5" y="648.5" width="165" height="50" as="geometry" />
        </mxCell>
        <mxCell id="rGTYj-KhPwEEF0hC5yKi-18" value="Maklumat Data yang&lt;div&gt;&amp;nbsp;Diproses&lt;/div&gt;" style="text;html=1;align=center;verticalAlign=middle;resizable=0;points=[];autosize=1;strokeColor=none;fillColor=none;fontSize=16;" vertex="1" parent="1">
          <mxGeometry x="1338" y="138" width="165" height="50" as="geometry" />
        </mxCell>
        <mxCell id="rGTYj-KhPwEEF0hC5yKi-19" value="Maklumat Stok yang&lt;div&gt;&amp;nbsp;Dikemaskini&lt;/div&gt;" style="text;html=1;align=center;verticalAlign=middle;resizable=0;points=[];autosize=1;strokeColor=none;fillColor=none;fontSize=16;" vertex="1" parent="1">
          <mxGeometry x="1443" y="1240" width="163" height="50" as="geometry" />
        </mxCell>
        <mxCell id="rGTYj-KhPwEEF0hC5yKi-20" value="Maklumat Data yang&lt;div&gt;&amp;nbsp;diproses&lt;/div&gt;" style="text;html=1;align=center;verticalAlign=middle;resizable=0;points=[];autosize=1;strokeColor=none;fillColor=none;fontSize=16;" vertex="1" parent="1">
          <mxGeometry x="984" y="1305" width="165" height="50" as="geometry" />
        </mxCell>
        <mxCell id="rGTYj-KhPwEEF0hC5yKi-21" value="Laporan yang&lt;div&gt;&amp;nbsp;Diproses&lt;/div&gt;" style="text;html=1;align=center;verticalAlign=middle;resizable=0;points=[];autosize=1;strokeColor=none;fillColor=none;fontSize=16;" vertex="1" parent="1">
          <mxGeometry x="1015" y="946" width="116" height="50" as="geometry" />
        </mxCell>
        <mxCell id="gM6pwhn-xmijrrsbZyzp-1" value="Laporan&amp;nbsp;&lt;div&gt;Bulanan&lt;/div&gt;" style="text;html=1;align=center;verticalAlign=middle;resizable=0;points=[];autosize=1;strokeColor=none;fillColor=none;fontSize=16;" vertex="1" parent="1">
          <mxGeometry x="1439.5" y="967.5" width="81" height="50" as="geometry" />
        </mxCell>
        <mxCell id="gM6pwhn-xmijrrsbZyzp-3" style="edgeStyle=orthogonalEdgeStyle;rounded=0;orthogonalLoop=1;jettySize=auto;html=1;entryX=0.453;entryY=1;entryDx=0;entryDy=0;entryPerimeter=0;fontSize=12;startSize=8;endSize=8;exitX=0;exitY=0.5;exitDx=0;exitDy=0;" edge="1" parent="1" source="rGTYj-KhPwEEF0hC5yKi-2" target="Y9vOa5RN0gEG9IAq9d5h-20">
          <mxGeometry relative="1" as="geometry">
            <Array as="points">
              <mxPoint x="1150" y="656" />
              <mxPoint x="1150" y="617" />
              <mxPoint x="912" y="617" />
            </Array>
          </mxGeometry>
        </mxCell>
        <mxCell id="gM6pwhn-xmijrrsbZyzp-5" value="Tempahan yang&lt;div&gt;&amp;nbsp;DIkemaskini&lt;/div&gt;" style="text;html=1;align=center;verticalAlign=middle;resizable=0;points=[];autosize=1;strokeColor=none;fillColor=none;fontSize=16;" vertex="1" parent="1">
          <mxGeometry x="1407.5" y="659.5" width="132" height="50" as="geometry" />
        </mxCell>
        <mxCell id="gM6pwhn-xmijrrsbZyzp-6" value="Tempahan yang&lt;div&gt;&amp;nbsp;Diproses&lt;/div&gt;" style="text;html=1;align=center;verticalAlign=middle;resizable=0;points=[];autosize=1;strokeColor=none;fillColor=none;fontSize=16;" vertex="1" parent="1">
          <mxGeometry x="934" y="560" width="132" height="50" as="geometry" />
        </mxCell>
        <mxCell id="gM6pwhn-xmijrrsbZyzp-7" value="Maklumat&lt;div&gt;&amp;nbsp;Pekerja&lt;/div&gt;&lt;div&gt;yang&lt;/div&gt;&lt;div&gt;Diproses&lt;/div&gt;" style="text;html=1;align=center;verticalAlign=middle;resizable=0;points=[];autosize=1;strokeColor=none;fillColor=none;fontSize=16;" vertex="1" parent="1">
          <mxGeometry x="1138" y="197" width="87" height="89" as="geometry" />
        </mxCell>
        <mxCell id="gM6pwhn-xmijrrsbZyzp-8" value="Status&amp;nbsp;&lt;span style=&quot;background-color: transparent; color: light-dark(rgb(0, 0, 0), rgb(255, 255, 255));&quot;&gt;&amp;nbsp;&lt;/span&gt;&lt;div&gt;Kereta&lt;/div&gt;&lt;div&gt;yang&amp;nbsp;&lt;/div&gt;&lt;div&gt;diproses&lt;/div&gt;" style="text;html=1;align=center;verticalAlign=middle;resizable=0;points=[];autosize=1;strokeColor=none;fillColor=none;fontSize=16;" vertex="1" parent="1">
          <mxGeometry x="420" y="226" width="78" height="89" as="geometry" />
        </mxCell>
        <mxCell id="gM6pwhn-xmijrrsbZyzp-9" value="Maklumat Pekerja&amp;nbsp;&lt;div&gt;yang dikemaskini&lt;/div&gt;" style="text;html=1;align=center;verticalAlign=middle;resizable=0;points=[];autosize=1;strokeColor=none;fillColor=none;fontSize=16;" vertex="1" parent="1">
          <mxGeometry x="1423" y="1122" width="151" height="50" as="geometry" />
        </mxCell>
        <mxCell id="gM6pwhn-xmijrrsbZyzp-10" value="Maklumat Pekerja&amp;nbsp;&lt;div&gt;yang diproses&lt;/div&gt;" style="text;html=1;align=center;verticalAlign=middle;resizable=0;points=[];autosize=1;strokeColor=none;fillColor=none;fontSize=16;" vertex="1" parent="1">
          <mxGeometry x="980" y="1085" width="151" height="50" as="geometry" />
        </mxCell>
        <mxCell id="gM6pwhn-xmijrrsbZyzp-11" value="Maklumat&amp;nbsp;&lt;div&gt;tempahan&amp;nbsp;&lt;/div&gt;&lt;div&gt;pelanggan&lt;/div&gt;" style="text;html=1;align=center;verticalAlign=middle;resizable=0;points=[];autosize=1;strokeColor=none;fillColor=none;fontSize=16;" vertex="1" parent="1">
          <mxGeometry x="395.5" y="374.5" width="94" height="70" as="geometry" />
        </mxCell>
        <mxCell id="gM6pwhn-xmijrrsbZyzp-12" value="Maklumat&amp;nbsp;&lt;div&gt;tempahan&amp;nbsp;&lt;/div&gt;&lt;div&gt;yang diproses&lt;/div&gt;" style="text;html=1;align=center;verticalAlign=middle;resizable=0;points=[];autosize=1;strokeColor=none;fillColor=none;fontSize=16;" vertex="1" parent="1">
          <mxGeometry x="698" y="378" width="118" height="70" as="geometry" />
        </mxCell>
        <mxCell id="gM6pwhn-xmijrrsbZyzp-13" value="Sejarah servis&lt;div&gt;&amp;nbsp;pelanggan&lt;/div&gt;" style="text;html=1;align=center;verticalAlign=middle;resizable=0;points=[];autosize=1;strokeColor=none;fillColor=none;fontSize=16;" vertex="1" parent="1">
          <mxGeometry x="705.5" y="562.5" width="119" height="50" as="geometry" />
        </mxCell>
        <mxCell id="gM6pwhn-xmijrrsbZyzp-14" value="Sejarah servis&lt;div&gt;&amp;nbsp;pelanggan&lt;/div&gt;&lt;div&gt;diproses&lt;/div&gt;" style="text;html=1;align=center;verticalAlign=middle;resizable=0;points=[];autosize=1;strokeColor=none;fillColor=none;fontSize=16;" vertex="1" parent="1">
          <mxGeometry x="374" y="533" width="119" height="70" as="geometry" />
        </mxCell>
        <mxCell id="gM6pwhn-xmijrrsbZyzp-17" style="edgeStyle=orthogonalEdgeStyle;rounded=0;orthogonalLoop=1;jettySize=auto;html=1;entryX=0.5;entryY=1;entryDx=0;entryDy=0;fontSize=12;startSize=8;endSize=8;exitX=0.5;exitY=1;exitDx=0;exitDy=0;" edge="1" parent="1" source="rGTYj-KhPwEEF0hC5yKi-5" target="Y9vOa5RN0gEG9IAq9d5h-32">
          <mxGeometry relative="1" as="geometry">
            <Array as="points">
              <mxPoint x="1886" y="1392" />
              <mxPoint x="928" y="1392" />
            </Array>
          </mxGeometry>
        </mxCell>
        <mxCell id="gM6pwhn-xmijrrsbZyzp-18" value="Bilangan stok&amp;nbsp;&lt;div&gt;yang digunakan&lt;/div&gt;" style="text;html=1;align=center;verticalAlign=middle;resizable=0;points=[];autosize=1;strokeColor=none;fillColor=none;fontSize=16;" vertex="1" parent="1">
          <mxGeometry x="1728" y="560" width="131" height="50" as="geometry" />
        </mxCell>
        <mxCell id="gM6pwhn-xmijrrsbZyzp-19" value="Bilangan alat&amp;nbsp;&lt;div&gt;yang digunakan&lt;/div&gt;" style="text;html=1;align=center;verticalAlign=middle;resizable=0;points=[];autosize=1;strokeColor=none;fillColor=none;fontSize=16;" vertex="1" parent="1">
          <mxGeometry x="803" y="1287" width="131" height="50" as="geometry" />
        </mxCell>
      </root>
    </mxGraphModel>
  </diagram>
  <diagram id="VSufLzXGVRdIAOr4iz2c" name="Page-3">
    <mxGraphModel dx="891" dy="1400" grid="0" gridSize="10" guides="1" tooltips="1" connect="1" arrows="1" fold="1" page="0" pageScale="1" pageWidth="1700" pageHeight="1100" math="0" shadow="0">
      <root>
        <mxCell id="0" />
        <mxCell id="1" parent="0" />
        <mxCell id="Z7961qpFFhvH9Aq7nxz6-1" value="Pelanggan" style="shape=table;startSize=30;container=1;collapsible=1;childLayout=tableLayout;fixedRows=1;rowLines=0;fontStyle=1;align=center;resizeLast=1;html=1;" vertex="1" parent="1">
          <mxGeometry x="183" y="362" width="180" height="270" as="geometry" />
        </mxCell>
        <mxCell id="Z7961qpFFhvH9Aq7nxz6-2" value="" style="shape=tableRow;horizontal=0;startSize=0;swimlaneHead=0;swimlaneBody=0;fillColor=none;collapsible=0;dropTarget=0;points=[[0,0.5],[1,0.5]];portConstraint=eastwest;top=0;left=0;right=0;bottom=1;" vertex="1" parent="Z7961qpFFhvH9Aq7nxz6-1">
          <mxGeometry y="30" width="180" height="30" as="geometry" />
        </mxCell>
        <mxCell id="Z7961qpFFhvH9Aq7nxz6-3" value="PK" style="shape=partialRectangle;connectable=0;fillColor=none;top=0;left=0;bottom=0;right=0;fontStyle=1;overflow=hidden;whiteSpace=wrap;html=1;" vertex="1" parent="Z7961qpFFhvH9Aq7nxz6-2">
          <mxGeometry width="30" height="30" as="geometry">
            <mxRectangle width="30" height="30" as="alternateBounds" />
          </mxGeometry>
        </mxCell>
        <mxCell id="Z7961qpFFhvH9Aq7nxz6-4" value="id_pelanggan" style="shape=partialRectangle;connectable=0;fillColor=none;top=0;left=0;bottom=0;right=0;align=left;spacingLeft=6;fontStyle=5;overflow=hidden;whiteSpace=wrap;html=1;" vertex="1" parent="Z7961qpFFhvH9Aq7nxz6-2">
          <mxGeometry x="30" width="150" height="30" as="geometry">
            <mxRectangle width="150" height="30" as="alternateBounds" />
          </mxGeometry>
        </mxCell>
        <mxCell id="Z7961qpFFhvH9Aq7nxz6-5" value="" style="shape=tableRow;horizontal=0;startSize=0;swimlaneHead=0;swimlaneBody=0;fillColor=none;collapsible=0;dropTarget=0;points=[[0,0.5],[1,0.5]];portConstraint=eastwest;top=0;left=0;right=0;bottom=0;" vertex="1" parent="Z7961qpFFhvH9Aq7nxz6-1">
          <mxGeometry y="60" width="180" height="30" as="geometry" />
        </mxCell>
        <mxCell id="Z7961qpFFhvH9Aq7nxz6-6" value="" style="shape=partialRectangle;connectable=0;fillColor=none;top=0;left=0;bottom=0;right=0;editable=1;overflow=hidden;whiteSpace=wrap;html=1;" vertex="1" parent="Z7961qpFFhvH9Aq7nxz6-5">
          <mxGeometry width="30" height="30" as="geometry">
            <mxRectangle width="30" height="30" as="alternateBounds" />
          </mxGeometry>
        </mxCell>
        <mxCell id="Z7961qpFFhvH9Aq7nxz6-7" value="nama" style="shape=partialRectangle;connectable=0;fillColor=none;top=0;left=0;bottom=0;right=0;align=left;spacingLeft=6;overflow=hidden;whiteSpace=wrap;html=1;" vertex="1" parent="Z7961qpFFhvH9Aq7nxz6-5">
          <mxGeometry x="30" width="150" height="30" as="geometry">
            <mxRectangle width="150" height="30" as="alternateBounds" />
          </mxGeometry>
        </mxCell>
        <mxCell id="Z7961qpFFhvH9Aq7nxz6-8" value="" style="shape=tableRow;horizontal=0;startSize=0;swimlaneHead=0;swimlaneBody=0;fillColor=none;collapsible=0;dropTarget=0;points=[[0,0.5],[1,0.5]];portConstraint=eastwest;top=0;left=0;right=0;bottom=0;" vertex="1" parent="Z7961qpFFhvH9Aq7nxz6-1">
          <mxGeometry y="90" width="180" height="30" as="geometry" />
        </mxCell>
        <mxCell id="Z7961qpFFhvH9Aq7nxz6-9" value="" style="shape=partialRectangle;connectable=0;fillColor=none;top=0;left=0;bottom=0;right=0;editable=1;overflow=hidden;whiteSpace=wrap;html=1;" vertex="1" parent="Z7961qpFFhvH9Aq7nxz6-8">
          <mxGeometry width="30" height="30" as="geometry">
            <mxRectangle width="30" height="30" as="alternateBounds" />
          </mxGeometry>
        </mxCell>
        <mxCell id="Z7961qpFFhvH9Aq7nxz6-10" value="no_telefon" style="shape=partialRectangle;connectable=0;fillColor=none;top=0;left=0;bottom=0;right=0;align=left;spacingLeft=6;overflow=hidden;whiteSpace=wrap;html=1;" vertex="1" parent="Z7961qpFFhvH9Aq7nxz6-8">
          <mxGeometry x="30" width="150" height="30" as="geometry">
            <mxRectangle width="150" height="30" as="alternateBounds" />
          </mxGeometry>
        </mxCell>
        <mxCell id="Z7961qpFFhvH9Aq7nxz6-11" value="" style="shape=tableRow;horizontal=0;startSize=0;swimlaneHead=0;swimlaneBody=0;fillColor=none;collapsible=0;dropTarget=0;points=[[0,0.5],[1,0.5]];portConstraint=eastwest;top=0;left=0;right=0;bottom=0;" vertex="1" parent="Z7961qpFFhvH9Aq7nxz6-1">
          <mxGeometry y="120" width="180" height="30" as="geometry" />
        </mxCell>
        <mxCell id="Z7961qpFFhvH9Aq7nxz6-12" value="" style="shape=partialRectangle;connectable=0;fillColor=none;top=0;left=0;bottom=0;right=0;editable=1;overflow=hidden;" vertex="1" parent="Z7961qpFFhvH9Aq7nxz6-11">
          <mxGeometry width="30" height="30" as="geometry">
            <mxRectangle width="30" height="30" as="alternateBounds" />
          </mxGeometry>
        </mxCell>
        <mxCell id="Z7961qpFFhvH9Aq7nxz6-13" value="email" style="shape=partialRectangle;connectable=0;fillColor=none;top=0;left=0;bottom=0;right=0;align=left;spacingLeft=6;overflow=hidden;" vertex="1" parent="Z7961qpFFhvH9Aq7nxz6-11">
          <mxGeometry x="30" width="150" height="30" as="geometry">
            <mxRectangle width="150" height="30" as="alternateBounds" />
          </mxGeometry>
        </mxCell>
        <mxCell id="Z7961qpFFhvH9Aq7nxz6-14" value="" style="shape=tableRow;horizontal=0;startSize=0;swimlaneHead=0;swimlaneBody=0;fillColor=none;collapsible=0;dropTarget=0;points=[[0,0.5],[1,0.5]];portConstraint=eastwest;top=0;left=0;right=0;bottom=0;" vertex="1" parent="Z7961qpFFhvH9Aq7nxz6-1">
          <mxGeometry y="150" width="180" height="30" as="geometry" />
        </mxCell>
        <mxCell id="Z7961qpFFhvH9Aq7nxz6-15" value="" style="shape=partialRectangle;connectable=0;fillColor=none;top=0;left=0;bottom=0;right=0;editable=1;overflow=hidden;" vertex="1" parent="Z7961qpFFhvH9Aq7nxz6-14">
          <mxGeometry width="30" height="30" as="geometry">
            <mxRectangle width="30" height="30" as="alternateBounds" />
          </mxGeometry>
        </mxCell>
        <mxCell id="Z7961qpFFhvH9Aq7nxz6-16" value="alamat" style="shape=partialRectangle;connectable=0;fillColor=none;top=0;left=0;bottom=0;right=0;align=left;spacingLeft=6;overflow=hidden;" vertex="1" parent="Z7961qpFFhvH9Aq7nxz6-14">
          <mxGeometry x="30" width="150" height="30" as="geometry">
            <mxRectangle width="150" height="30" as="alternateBounds" />
          </mxGeometry>
        </mxCell>
        <mxCell id="Z7961qpFFhvH9Aq7nxz6-17" value="" style="shape=tableRow;horizontal=0;startSize=0;swimlaneHead=0;swimlaneBody=0;fillColor=none;collapsible=0;dropTarget=0;points=[[0,0.5],[1,0.5]];portConstraint=eastwest;top=0;left=0;right=0;bottom=0;" vertex="1" parent="Z7961qpFFhvH9Aq7nxz6-1">
          <mxGeometry y="180" width="180" height="30" as="geometry" />
        </mxCell>
        <mxCell id="Z7961qpFFhvH9Aq7nxz6-18" value="" style="shape=partialRectangle;connectable=0;fillColor=none;top=0;left=0;bottom=0;right=0;editable=1;overflow=hidden;" vertex="1" parent="Z7961qpFFhvH9Aq7nxz6-17">
          <mxGeometry width="30" height="30" as="geometry">
            <mxRectangle width="30" height="30" as="alternateBounds" />
          </mxGeometry>
        </mxCell>
        <mxCell id="Z7961qpFFhvH9Aq7nxz6-19" value="tarikh_pendaftaran" style="shape=partialRectangle;connectable=0;fillColor=none;top=0;left=0;bottom=0;right=0;align=left;spacingLeft=6;overflow=hidden;" vertex="1" parent="Z7961qpFFhvH9Aq7nxz6-17">
          <mxGeometry x="30" width="150" height="30" as="geometry">
            <mxRectangle width="150" height="30" as="alternateBounds" />
          </mxGeometry>
        </mxCell>
        <mxCell id="Z7961qpFFhvH9Aq7nxz6-20" value="" style="shape=tableRow;horizontal=0;startSize=0;swimlaneHead=0;swimlaneBody=0;fillColor=none;collapsible=0;dropTarget=0;points=[[0,0.5],[1,0.5]];portConstraint=eastwest;top=0;left=0;right=0;bottom=0;" vertex="1" parent="Z7961qpFFhvH9Aq7nxz6-1">
          <mxGeometry y="210" width="180" height="30" as="geometry" />
        </mxCell>
        <mxCell id="Z7961qpFFhvH9Aq7nxz6-21" value="" style="shape=partialRectangle;connectable=0;fillColor=none;top=0;left=0;bottom=0;right=0;editable=1;overflow=hidden;" vertex="1" parent="Z7961qpFFhvH9Aq7nxz6-20">
          <mxGeometry width="30" height="30" as="geometry">
            <mxRectangle width="30" height="30" as="alternateBounds" />
          </mxGeometry>
        </mxCell>
        <mxCell id="Z7961qpFFhvH9Aq7nxz6-22" value="no_kenderaan" style="shape=partialRectangle;connectable=0;fillColor=none;top=0;left=0;bottom=0;right=0;align=left;spacingLeft=6;overflow=hidden;" vertex="1" parent="Z7961qpFFhvH9Aq7nxz6-20">
          <mxGeometry x="30" width="150" height="30" as="geometry">
            <mxRectangle width="150" height="30" as="alternateBounds" />
          </mxGeometry>
        </mxCell>
        <mxCell id="Z7961qpFFhvH9Aq7nxz6-26" value="" style="shape=tableRow;horizontal=0;startSize=0;swimlaneHead=0;swimlaneBody=0;fillColor=none;collapsible=0;dropTarget=0;points=[[0,0.5],[1,0.5]];portConstraint=eastwest;top=0;left=0;right=0;bottom=0;" vertex="1" parent="Z7961qpFFhvH9Aq7nxz6-1">
          <mxGeometry y="240" width="180" height="30" as="geometry" />
        </mxCell>
        <mxCell id="Z7961qpFFhvH9Aq7nxz6-27" value="" style="shape=partialRectangle;connectable=0;fillColor=none;top=0;left=0;bottom=0;right=0;editable=1;overflow=hidden;whiteSpace=wrap;html=1;" vertex="1" parent="Z7961qpFFhvH9Aq7nxz6-26">
          <mxGeometry width="30" height="30" as="geometry">
            <mxRectangle width="30" height="30" as="alternateBounds" />
          </mxGeometry>
        </mxCell>
        <mxCell id="Z7961qpFFhvH9Aq7nxz6-28" value="VehicleModel" style="shape=partialRectangle;connectable=0;fillColor=none;top=0;left=0;bottom=0;right=0;align=left;spacingLeft=6;overflow=hidden;whiteSpace=wrap;html=1;" vertex="1" parent="Z7961qpFFhvH9Aq7nxz6-26">
          <mxGeometry x="30" width="150" height="30" as="geometry">
            <mxRectangle width="150" height="30" as="alternateBounds" />
          </mxGeometry>
        </mxCell>
        <mxCell id="Z7961qpFFhvH9Aq7nxz6-29" value="Laporan_Pengurus" style="shape=table;startSize=30;container=1;collapsible=1;childLayout=tableLayout;fixedRows=1;rowLines=0;fontStyle=1;align=center;resizeLast=1;html=1;" vertex="1" parent="1">
          <mxGeometry x="1098" y="707" width="180" height="210" as="geometry" />
        </mxCell>
        <mxCell id="Z7961qpFFhvH9Aq7nxz6-30" value="" style="shape=tableRow;horizontal=0;startSize=0;swimlaneHead=0;swimlaneBody=0;fillColor=none;collapsible=0;dropTarget=0;points=[[0,0.5],[1,0.5]];portConstraint=eastwest;top=0;left=0;right=0;bottom=1;" vertex="1" parent="Z7961qpFFhvH9Aq7nxz6-29">
          <mxGeometry y="30" width="180" height="30" as="geometry" />
        </mxCell>
        <mxCell id="Z7961qpFFhvH9Aq7nxz6-31" value="PK" style="shape=partialRectangle;connectable=0;fillColor=none;top=0;left=0;bottom=0;right=0;fontStyle=1;overflow=hidden;whiteSpace=wrap;html=1;" vertex="1" parent="Z7961qpFFhvH9Aq7nxz6-30">
          <mxGeometry width="30" height="30" as="geometry">
            <mxRectangle width="30" height="30" as="alternateBounds" />
          </mxGeometry>
        </mxCell>
        <mxCell id="Z7961qpFFhvH9Aq7nxz6-32" value="id_laporan" style="shape=partialRectangle;connectable=0;fillColor=none;top=0;left=0;bottom=0;right=0;align=left;spacingLeft=6;fontStyle=5;overflow=hidden;whiteSpace=wrap;html=1;" vertex="1" parent="Z7961qpFFhvH9Aq7nxz6-30">
          <mxGeometry x="30" width="150" height="30" as="geometry">
            <mxRectangle width="150" height="30" as="alternateBounds" />
          </mxGeometry>
        </mxCell>
        <mxCell id="Z7961qpFFhvH9Aq7nxz6-33" value="" style="shape=tableRow;horizontal=0;startSize=0;swimlaneHead=0;swimlaneBody=0;fillColor=none;collapsible=0;dropTarget=0;points=[[0,0.5],[1,0.5]];portConstraint=eastwest;top=0;left=0;right=0;bottom=0;" vertex="1" parent="Z7961qpFFhvH9Aq7nxz6-29">
          <mxGeometry y="60" width="180" height="30" as="geometry" />
        </mxCell>
        <mxCell id="Z7961qpFFhvH9Aq7nxz6-34" value="FK" style="shape=partialRectangle;connectable=0;fillColor=none;top=0;left=0;bottom=0;right=0;editable=1;overflow=hidden;whiteSpace=wrap;html=1;" vertex="1" parent="Z7961qpFFhvH9Aq7nxz6-33">
          <mxGeometry width="30" height="30" as="geometry">
            <mxRectangle width="30" height="30" as="alternateBounds" />
          </mxGeometry>
        </mxCell>
        <mxCell id="Z7961qpFFhvH9Aq7nxz6-35" value="id_pengurus" style="shape=partialRectangle;connectable=0;fillColor=none;top=0;left=0;bottom=0;right=0;align=left;spacingLeft=6;overflow=hidden;whiteSpace=wrap;html=1;" vertex="1" parent="Z7961qpFFhvH9Aq7nxz6-33">
          <mxGeometry x="30" width="150" height="30" as="geometry">
            <mxRectangle width="150" height="30" as="alternateBounds" />
          </mxGeometry>
        </mxCell>
        <mxCell id="Z7961qpFFhvH9Aq7nxz6-36" value="" style="shape=tableRow;horizontal=0;startSize=0;swimlaneHead=0;swimlaneBody=0;fillColor=none;collapsible=0;dropTarget=0;points=[[0,0.5],[1,0.5]];portConstraint=eastwest;top=0;left=0;right=0;bottom=0;" vertex="1" parent="Z7961qpFFhvH9Aq7nxz6-29">
          <mxGeometry y="90" width="180" height="30" as="geometry" />
        </mxCell>
        <mxCell id="Z7961qpFFhvH9Aq7nxz6-37" value="" style="shape=partialRectangle;connectable=0;fillColor=none;top=0;left=0;bottom=0;right=0;editable=1;overflow=hidden;whiteSpace=wrap;html=1;" vertex="1" parent="Z7961qpFFhvH9Aq7nxz6-36">
          <mxGeometry width="30" height="30" as="geometry">
            <mxRectangle width="30" height="30" as="alternateBounds" />
          </mxGeometry>
        </mxCell>
        <mxCell id="Z7961qpFFhvH9Aq7nxz6-38" value="jenis_laporan" style="shape=partialRectangle;connectable=0;fillColor=none;top=0;left=0;bottom=0;right=0;align=left;spacingLeft=6;overflow=hidden;whiteSpace=wrap;html=1;" vertex="1" parent="Z7961qpFFhvH9Aq7nxz6-36">
          <mxGeometry x="30" width="150" height="30" as="geometry">
            <mxRectangle width="150" height="30" as="alternateBounds" />
          </mxGeometry>
        </mxCell>
        <mxCell id="Z7961qpFFhvH9Aq7nxz6-39" value="" style="shape=tableRow;horizontal=0;startSize=0;swimlaneHead=0;swimlaneBody=0;fillColor=none;collapsible=0;dropTarget=0;points=[[0,0.5],[1,0.5]];portConstraint=eastwest;top=0;left=0;right=0;bottom=0;" vertex="1" parent="Z7961qpFFhvH9Aq7nxz6-29">
          <mxGeometry y="120" width="180" height="30" as="geometry" />
        </mxCell>
        <mxCell id="Z7961qpFFhvH9Aq7nxz6-40" value="" style="shape=partialRectangle;connectable=0;fillColor=none;top=0;left=0;bottom=0;right=0;editable=1;overflow=hidden;" vertex="1" parent="Z7961qpFFhvH9Aq7nxz6-39">
          <mxGeometry width="30" height="30" as="geometry">
            <mxRectangle width="30" height="30" as="alternateBounds" />
          </mxGeometry>
        </mxCell>
        <mxCell id="Z7961qpFFhvH9Aq7nxz6-41" value="tarikh_laporan" style="shape=partialRectangle;connectable=0;fillColor=none;top=0;left=0;bottom=0;right=0;align=left;spacingLeft=6;overflow=hidden;" vertex="1" parent="Z7961qpFFhvH9Aq7nxz6-39">
          <mxGeometry x="30" width="150" height="30" as="geometry">
            <mxRectangle width="150" height="30" as="alternateBounds" />
          </mxGeometry>
        </mxCell>
        <mxCell id="Z7961qpFFhvH9Aq7nxz6-42" value="" style="shape=tableRow;horizontal=0;startSize=0;swimlaneHead=0;swimlaneBody=0;fillColor=none;collapsible=0;dropTarget=0;points=[[0,0.5],[1,0.5]];portConstraint=eastwest;top=0;left=0;right=0;bottom=0;" vertex="1" parent="Z7961qpFFhvH9Aq7nxz6-29">
          <mxGeometry y="150" width="180" height="30" as="geometry" />
        </mxCell>
        <mxCell id="Z7961qpFFhvH9Aq7nxz6-43" value="" style="shape=partialRectangle;connectable=0;fillColor=none;top=0;left=0;bottom=0;right=0;editable=1;overflow=hidden;" vertex="1" parent="Z7961qpFFhvH9Aq7nxz6-42">
          <mxGeometry width="30" height="30" as="geometry">
            <mxRectangle width="30" height="30" as="alternateBounds" />
          </mxGeometry>
        </mxCell>
        <mxCell id="Z7961qpFFhvH9Aq7nxz6-44" value="hasil" style="shape=partialRectangle;connectable=0;fillColor=none;top=0;left=0;bottom=0;right=0;align=left;spacingLeft=6;overflow=hidden;" vertex="1" parent="Z7961qpFFhvH9Aq7nxz6-42">
          <mxGeometry x="30" width="150" height="30" as="geometry">
            <mxRectangle width="150" height="30" as="alternateBounds" />
          </mxGeometry>
        </mxCell>
        <mxCell id="Z7961qpFFhvH9Aq7nxz6-45" value="" style="shape=tableRow;horizontal=0;startSize=0;swimlaneHead=0;swimlaneBody=0;fillColor=none;collapsible=0;dropTarget=0;points=[[0,0.5],[1,0.5]];portConstraint=eastwest;top=0;left=0;right=0;bottom=0;" vertex="1" parent="Z7961qpFFhvH9Aq7nxz6-29">
          <mxGeometry y="180" width="180" height="30" as="geometry" />
        </mxCell>
        <mxCell id="Z7961qpFFhvH9Aq7nxz6-46" value="" style="shape=partialRectangle;connectable=0;fillColor=none;top=0;left=0;bottom=0;right=0;editable=1;overflow=hidden;" vertex="1" parent="Z7961qpFFhvH9Aq7nxz6-45">
          <mxGeometry width="30" height="30" as="geometry">
            <mxRectangle width="30" height="30" as="alternateBounds" />
          </mxGeometry>
        </mxCell>
        <mxCell id="Z7961qpFFhvH9Aq7nxz6-47" value="nota" style="shape=partialRectangle;connectable=0;fillColor=none;top=0;left=0;bottom=0;right=0;align=left;spacingLeft=6;overflow=hidden;" vertex="1" parent="Z7961qpFFhvH9Aq7nxz6-45">
          <mxGeometry x="30" width="150" height="30" as="geometry">
            <mxRectangle width="150" height="30" as="alternateBounds" />
          </mxGeometry>
        </mxCell>
        <mxCell id="Z7961qpFFhvH9Aq7nxz6-48" style="edgeStyle=orthogonalEdgeStyle;rounded=0;orthogonalLoop=1;jettySize=auto;html=1;entryX=0;entryY=0.5;entryDx=0;entryDy=0;" edge="1" parent="1" source="Z7961qpFFhvH9Aq7nxz6-50" target="Z7961qpFFhvH9Aq7nxz6-123">
          <mxGeometry relative="1" as="geometry" />
        </mxCell>
        <mxCell id="Z7961qpFFhvH9Aq7nxz6-49" style="edgeStyle=orthogonalEdgeStyle;rounded=0;orthogonalLoop=1;jettySize=auto;html=1;exitX=0.5;exitY=0;exitDx=0;exitDy=0;entryX=0.511;entryY=1.132;entryDx=0;entryDy=0;entryPerimeter=0;" edge="1" parent="1" source="Z7961qpFFhvH9Aq7nxz6-50" target="Z7961qpFFhvH9Aq7nxz6-110">
          <mxGeometry relative="1" as="geometry">
            <Array as="points">
              <mxPoint x="673" y="272" />
              <mxPoint x="545" y="272" />
            </Array>
          </mxGeometry>
        </mxCell>
        <mxCell id="Z7961qpFFhvH9Aq7nxz6-50" value="Tempahan" style="shape=table;startSize=30;container=1;collapsible=1;childLayout=tableLayout;fixedRows=1;rowLines=0;fontStyle=1;align=center;resizeLast=1;html=1;" vertex="1" parent="1">
          <mxGeometry x="583" y="372" width="180" height="270" as="geometry" />
        </mxCell>
        <mxCell id="Z7961qpFFhvH9Aq7nxz6-51" value="" style="shape=tableRow;horizontal=0;startSize=0;swimlaneHead=0;swimlaneBody=0;fillColor=none;collapsible=0;dropTarget=0;points=[[0,0.5],[1,0.5]];portConstraint=eastwest;top=0;left=0;right=0;bottom=1;" vertex="1" parent="Z7961qpFFhvH9Aq7nxz6-50">
          <mxGeometry y="30" width="180" height="30" as="geometry" />
        </mxCell>
        <mxCell id="Z7961qpFFhvH9Aq7nxz6-52" value="PK" style="shape=partialRectangle;connectable=0;fillColor=none;top=0;left=0;bottom=0;right=0;fontStyle=1;overflow=hidden;whiteSpace=wrap;html=1;" vertex="1" parent="Z7961qpFFhvH9Aq7nxz6-51">
          <mxGeometry width="30" height="30" as="geometry">
            <mxRectangle width="30" height="30" as="alternateBounds" />
          </mxGeometry>
        </mxCell>
        <mxCell id="Z7961qpFFhvH9Aq7nxz6-53" value="id_tempahan" style="shape=partialRectangle;connectable=0;fillColor=none;top=0;left=0;bottom=0;right=0;align=left;spacingLeft=6;fontStyle=5;overflow=hidden;whiteSpace=wrap;html=1;" vertex="1" parent="Z7961qpFFhvH9Aq7nxz6-51">
          <mxGeometry x="30" width="150" height="30" as="geometry">
            <mxRectangle width="150" height="30" as="alternateBounds" />
          </mxGeometry>
        </mxCell>
        <mxCell id="Z7961qpFFhvH9Aq7nxz6-54" value="" style="shape=tableRow;horizontal=0;startSize=0;swimlaneHead=0;swimlaneBody=0;fillColor=none;collapsible=0;dropTarget=0;points=[[0,0.5],[1,0.5]];portConstraint=eastwest;top=0;left=0;right=0;bottom=0;" vertex="1" parent="Z7961qpFFhvH9Aq7nxz6-50">
          <mxGeometry y="60" width="180" height="30" as="geometry" />
        </mxCell>
        <mxCell id="Z7961qpFFhvH9Aq7nxz6-55" value="FK" style="shape=partialRectangle;connectable=0;fillColor=none;top=0;left=0;bottom=0;right=0;editable=1;overflow=hidden;whiteSpace=wrap;html=1;" vertex="1" parent="Z7961qpFFhvH9Aq7nxz6-54">
          <mxGeometry width="30" height="30" as="geometry">
            <mxRectangle width="30" height="30" as="alternateBounds" />
          </mxGeometry>
        </mxCell>
        <mxCell id="Z7961qpFFhvH9Aq7nxz6-56" value="id_pelanggan" style="shape=partialRectangle;connectable=0;fillColor=none;top=0;left=0;bottom=0;right=0;align=left;spacingLeft=6;overflow=hidden;whiteSpace=wrap;html=1;" vertex="1" parent="Z7961qpFFhvH9Aq7nxz6-54">
          <mxGeometry x="30" width="150" height="30" as="geometry">
            <mxRectangle width="150" height="30" as="alternateBounds" />
          </mxGeometry>
        </mxCell>
        <mxCell id="Z7961qpFFhvH9Aq7nxz6-57" value="" style="shape=tableRow;horizontal=0;startSize=0;swimlaneHead=0;swimlaneBody=0;fillColor=none;collapsible=0;dropTarget=0;points=[[0,0.5],[1,0.5]];portConstraint=eastwest;top=0;left=0;right=0;bottom=0;" vertex="1" parent="Z7961qpFFhvH9Aq7nxz6-50">
          <mxGeometry y="90" width="180" height="30" as="geometry" />
        </mxCell>
        <mxCell id="Z7961qpFFhvH9Aq7nxz6-58" value="FK" style="shape=partialRectangle;connectable=0;fillColor=none;top=0;left=0;bottom=0;right=0;editable=1;overflow=hidden;whiteSpace=wrap;html=1;" vertex="1" parent="Z7961qpFFhvH9Aq7nxz6-57">
          <mxGeometry width="30" height="30" as="geometry">
            <mxRectangle width="30" height="30" as="alternateBounds" />
          </mxGeometry>
        </mxCell>
        <mxCell id="Z7961qpFFhvH9Aq7nxz6-59" value="id_servis" style="shape=partialRectangle;connectable=0;fillColor=none;top=0;left=0;bottom=0;right=0;align=left;spacingLeft=6;overflow=hidden;whiteSpace=wrap;html=1;" vertex="1" parent="Z7961qpFFhvH9Aq7nxz6-57">
          <mxGeometry x="30" width="150" height="30" as="geometry">
            <mxRectangle width="150" height="30" as="alternateBounds" />
          </mxGeometry>
        </mxCell>
        <mxCell id="Z7961qpFFhvH9Aq7nxz6-60" value="" style="shape=tableRow;horizontal=0;startSize=0;swimlaneHead=0;swimlaneBody=0;fillColor=none;collapsible=0;dropTarget=0;points=[[0,0.5],[1,0.5]];portConstraint=eastwest;top=0;left=0;right=0;bottom=0;" vertex="1" parent="Z7961qpFFhvH9Aq7nxz6-50">
          <mxGeometry y="120" width="180" height="30" as="geometry" />
        </mxCell>
        <mxCell id="Z7961qpFFhvH9Aq7nxz6-61" value="FK" style="shape=partialRectangle;connectable=0;fillColor=none;top=0;left=0;bottom=0;right=0;editable=1;overflow=hidden;" vertex="1" parent="Z7961qpFFhvH9Aq7nxz6-60">
          <mxGeometry width="30" height="30" as="geometry">
            <mxRectangle width="30" height="30" as="alternateBounds" />
          </mxGeometry>
        </mxCell>
        <mxCell id="Z7961qpFFhvH9Aq7nxz6-62" value="id_pekerja" style="shape=partialRectangle;connectable=0;fillColor=none;top=0;left=0;bottom=0;right=0;align=left;spacingLeft=6;overflow=hidden;" vertex="1" parent="Z7961qpFFhvH9Aq7nxz6-60">
          <mxGeometry x="30" width="150" height="30" as="geometry">
            <mxRectangle width="150" height="30" as="alternateBounds" />
          </mxGeometry>
        </mxCell>
        <mxCell id="Z7961qpFFhvH9Aq7nxz6-63" value="" style="shape=tableRow;horizontal=0;startSize=0;swimlaneHead=0;swimlaneBody=0;fillColor=none;collapsible=0;dropTarget=0;points=[[0,0.5],[1,0.5]];portConstraint=eastwest;top=0;left=0;right=0;bottom=0;" vertex="1" parent="Z7961qpFFhvH9Aq7nxz6-50">
          <mxGeometry y="150" width="180" height="30" as="geometry" />
        </mxCell>
        <mxCell id="Z7961qpFFhvH9Aq7nxz6-64" value="" style="shape=partialRectangle;connectable=0;fillColor=none;top=0;left=0;bottom=0;right=0;editable=1;overflow=hidden;" vertex="1" parent="Z7961qpFFhvH9Aq7nxz6-63">
          <mxGeometry width="30" height="30" as="geometry">
            <mxRectangle width="30" height="30" as="alternateBounds" />
          </mxGeometry>
        </mxCell>
        <mxCell id="Z7961qpFFhvH9Aq7nxz6-65" value="tarikh_tempahan" style="shape=partialRectangle;connectable=0;fillColor=none;top=0;left=0;bottom=0;right=0;align=left;spacingLeft=6;overflow=hidden;" vertex="1" parent="Z7961qpFFhvH9Aq7nxz6-63">
          <mxGeometry x="30" width="150" height="30" as="geometry">
            <mxRectangle width="150" height="30" as="alternateBounds" />
          </mxGeometry>
        </mxCell>
        <mxCell id="Z7961qpFFhvH9Aq7nxz6-66" value="" style="shape=tableRow;horizontal=0;startSize=0;swimlaneHead=0;swimlaneBody=0;fillColor=none;collapsible=0;dropTarget=0;points=[[0,0.5],[1,0.5]];portConstraint=eastwest;top=0;left=0;right=0;bottom=0;" vertex="1" parent="Z7961qpFFhvH9Aq7nxz6-50">
          <mxGeometry y="180" width="180" height="30" as="geometry" />
        </mxCell>
        <mxCell id="Z7961qpFFhvH9Aq7nxz6-67" value="" style="shape=partialRectangle;connectable=0;fillColor=none;top=0;left=0;bottom=0;right=0;editable=1;overflow=hidden;" vertex="1" parent="Z7961qpFFhvH9Aq7nxz6-66">
          <mxGeometry width="30" height="30" as="geometry">
            <mxRectangle width="30" height="30" as="alternateBounds" />
          </mxGeometry>
        </mxCell>
        <mxCell id="Z7961qpFFhvH9Aq7nxz6-68" value="tempahan_masa" style="shape=partialRectangle;connectable=0;fillColor=none;top=0;left=0;bottom=0;right=0;align=left;spacingLeft=6;overflow=hidden;" vertex="1" parent="Z7961qpFFhvH9Aq7nxz6-66">
          <mxGeometry x="30" width="150" height="30" as="geometry">
            <mxRectangle width="150" height="30" as="alternateBounds" />
          </mxGeometry>
        </mxCell>
        <mxCell id="Z7961qpFFhvH9Aq7nxz6-69" value="" style="shape=tableRow;horizontal=0;startSize=0;swimlaneHead=0;swimlaneBody=0;fillColor=none;collapsible=0;dropTarget=0;points=[[0,0.5],[1,0.5]];portConstraint=eastwest;top=0;left=0;right=0;bottom=0;" vertex="1" parent="Z7961qpFFhvH9Aq7nxz6-50">
          <mxGeometry y="210" width="180" height="30" as="geometry" />
        </mxCell>
        <mxCell id="Z7961qpFFhvH9Aq7nxz6-70" value="" style="shape=partialRectangle;connectable=0;fillColor=none;top=0;left=0;bottom=0;right=0;editable=1;overflow=hidden;" vertex="1" parent="Z7961qpFFhvH9Aq7nxz6-69">
          <mxGeometry width="30" height="30" as="geometry">
            <mxRectangle width="30" height="30" as="alternateBounds" />
          </mxGeometry>
        </mxCell>
        <mxCell id="Z7961qpFFhvH9Aq7nxz6-71" value="status" style="shape=partialRectangle;connectable=0;fillColor=none;top=0;left=0;bottom=0;right=0;align=left;spacingLeft=6;overflow=hidden;" vertex="1" parent="Z7961qpFFhvH9Aq7nxz6-69">
          <mxGeometry x="30" width="150" height="30" as="geometry">
            <mxRectangle width="150" height="30" as="alternateBounds" />
          </mxGeometry>
        </mxCell>
        <mxCell id="Z7961qpFFhvH9Aq7nxz6-72" value="" style="shape=tableRow;horizontal=0;startSize=0;swimlaneHead=0;swimlaneBody=0;fillColor=none;collapsible=0;dropTarget=0;points=[[0,0.5],[1,0.5]];portConstraint=eastwest;top=0;left=0;right=0;bottom=0;" vertex="1" parent="Z7961qpFFhvH9Aq7nxz6-50">
          <mxGeometry y="240" width="180" height="30" as="geometry" />
        </mxCell>
        <mxCell id="Z7961qpFFhvH9Aq7nxz6-73" value="" style="shape=partialRectangle;connectable=0;fillColor=none;top=0;left=0;bottom=0;right=0;editable=1;overflow=hidden;" vertex="1" parent="Z7961qpFFhvH9Aq7nxz6-72">
          <mxGeometry width="30" height="30" as="geometry">
            <mxRectangle width="30" height="30" as="alternateBounds" />
          </mxGeometry>
        </mxCell>
        <mxCell id="Z7961qpFFhvH9Aq7nxz6-74" value="nota" style="shape=partialRectangle;connectable=0;fillColor=none;top=0;left=0;bottom=0;right=0;align=left;spacingLeft=6;overflow=hidden;" vertex="1" parent="Z7961qpFFhvH9Aq7nxz6-72">
          <mxGeometry x="30" width="150" height="30" as="geometry">
            <mxRectangle width="150" height="30" as="alternateBounds" />
          </mxGeometry>
        </mxCell>
        <mxCell id="Z7961qpFFhvH9Aq7nxz6-75" value="Laporan_Servis" style="shape=table;startSize=30;container=1;collapsible=1;childLayout=tableLayout;fixedRows=1;rowLines=0;fontStyle=1;align=center;resizeLast=1;html=1;" vertex="1" parent="1">
          <mxGeometry x="763" y="2" width="180" height="240" as="geometry" />
        </mxCell>
        <mxCell id="Z7961qpFFhvH9Aq7nxz6-76" value="" style="shape=tableRow;horizontal=0;startSize=0;swimlaneHead=0;swimlaneBody=0;fillColor=none;collapsible=0;dropTarget=0;points=[[0,0.5],[1,0.5]];portConstraint=eastwest;top=0;left=0;right=0;bottom=1;" vertex="1" parent="Z7961qpFFhvH9Aq7nxz6-75">
          <mxGeometry y="30" width="180" height="30" as="geometry" />
        </mxCell>
        <mxCell id="Z7961qpFFhvH9Aq7nxz6-77" value="PK" style="shape=partialRectangle;connectable=0;fillColor=none;top=0;left=0;bottom=0;right=0;fontStyle=1;overflow=hidden;whiteSpace=wrap;html=1;" vertex="1" parent="Z7961qpFFhvH9Aq7nxz6-76">
          <mxGeometry width="30" height="30" as="geometry">
            <mxRectangle width="30" height="30" as="alternateBounds" />
          </mxGeometry>
        </mxCell>
        <mxCell id="Z7961qpFFhvH9Aq7nxz6-78" value="id_laporan_servis" style="shape=partialRectangle;connectable=0;fillColor=none;top=0;left=0;bottom=0;right=0;align=left;spacingLeft=6;fontStyle=5;overflow=hidden;whiteSpace=wrap;html=1;" vertex="1" parent="Z7961qpFFhvH9Aq7nxz6-76">
          <mxGeometry x="30" width="150" height="30" as="geometry">
            <mxRectangle width="150" height="30" as="alternateBounds" />
          </mxGeometry>
        </mxCell>
        <mxCell id="Z7961qpFFhvH9Aq7nxz6-79" value="" style="shape=tableRow;horizontal=0;startSize=0;swimlaneHead=0;swimlaneBody=0;fillColor=none;collapsible=0;dropTarget=0;points=[[0,0.5],[1,0.5]];portConstraint=eastwest;top=0;left=0;right=0;bottom=0;" vertex="1" parent="Z7961qpFFhvH9Aq7nxz6-75">
          <mxGeometry y="60" width="180" height="30" as="geometry" />
        </mxCell>
        <mxCell id="Z7961qpFFhvH9Aq7nxz6-80" value="FK" style="shape=partialRectangle;connectable=0;fillColor=none;top=0;left=0;bottom=0;right=0;editable=1;overflow=hidden;whiteSpace=wrap;html=1;" vertex="1" parent="Z7961qpFFhvH9Aq7nxz6-79">
          <mxGeometry width="30" height="30" as="geometry">
            <mxRectangle width="30" height="30" as="alternateBounds" />
          </mxGeometry>
        </mxCell>
        <mxCell id="Z7961qpFFhvH9Aq7nxz6-81" value="id_tempahan" style="shape=partialRectangle;connectable=0;fillColor=none;top=0;left=0;bottom=0;right=0;align=left;spacingLeft=6;overflow=hidden;whiteSpace=wrap;html=1;" vertex="1" parent="Z7961qpFFhvH9Aq7nxz6-79">
          <mxGeometry x="30" width="150" height="30" as="geometry">
            <mxRectangle width="150" height="30" as="alternateBounds" />
          </mxGeometry>
        </mxCell>
        <mxCell id="Z7961qpFFhvH9Aq7nxz6-82" value="" style="shape=tableRow;horizontal=0;startSize=0;swimlaneHead=0;swimlaneBody=0;fillColor=none;collapsible=0;dropTarget=0;points=[[0,0.5],[1,0.5]];portConstraint=eastwest;top=0;left=0;right=0;bottom=0;" vertex="1" parent="Z7961qpFFhvH9Aq7nxz6-75">
          <mxGeometry y="90" width="180" height="30" as="geometry" />
        </mxCell>
        <mxCell id="Z7961qpFFhvH9Aq7nxz6-83" value="FK" style="shape=partialRectangle;connectable=0;fillColor=none;top=0;left=0;bottom=0;right=0;editable=1;overflow=hidden;whiteSpace=wrap;html=1;" vertex="1" parent="Z7961qpFFhvH9Aq7nxz6-82">
          <mxGeometry width="30" height="30" as="geometry">
            <mxRectangle width="30" height="30" as="alternateBounds" />
          </mxGeometry>
        </mxCell>
        <mxCell id="Z7961qpFFhvH9Aq7nxz6-84" value="id_pekerja" style="shape=partialRectangle;connectable=0;fillColor=none;top=0;left=0;bottom=0;right=0;align=left;spacingLeft=6;overflow=hidden;whiteSpace=wrap;html=1;" vertex="1" parent="Z7961qpFFhvH9Aq7nxz6-82">
          <mxGeometry x="30" width="150" height="30" as="geometry">
            <mxRectangle width="150" height="30" as="alternateBounds" />
          </mxGeometry>
        </mxCell>
        <mxCell id="Z7961qpFFhvH9Aq7nxz6-85" value="" style="shape=tableRow;horizontal=0;startSize=0;swimlaneHead=0;swimlaneBody=0;fillColor=none;collapsible=0;dropTarget=0;points=[[0,0.5],[1,0.5]];portConstraint=eastwest;top=0;left=0;right=0;bottom=0;" vertex="1" parent="Z7961qpFFhvH9Aq7nxz6-75">
          <mxGeometry y="120" width="180" height="30" as="geometry" />
        </mxCell>
        <mxCell id="Z7961qpFFhvH9Aq7nxz6-86" value="" style="shape=partialRectangle;connectable=0;fillColor=none;top=0;left=0;bottom=0;right=0;editable=1;overflow=hidden;" vertex="1" parent="Z7961qpFFhvH9Aq7nxz6-85">
          <mxGeometry width="30" height="30" as="geometry">
            <mxRectangle width="30" height="30" as="alternateBounds" />
          </mxGeometry>
        </mxCell>
        <mxCell id="Z7961qpFFhvH9Aq7nxz6-87" value="info_servis" style="shape=partialRectangle;connectable=0;fillColor=none;top=0;left=0;bottom=0;right=0;align=left;spacingLeft=6;overflow=hidden;" vertex="1" parent="Z7961qpFFhvH9Aq7nxz6-85">
          <mxGeometry x="30" width="150" height="30" as="geometry">
            <mxRectangle width="150" height="30" as="alternateBounds" />
          </mxGeometry>
        </mxCell>
        <mxCell id="Z7961qpFFhvH9Aq7nxz6-88" value="" style="shape=tableRow;horizontal=0;startSize=0;swimlaneHead=0;swimlaneBody=0;fillColor=none;collapsible=0;dropTarget=0;points=[[0,0.5],[1,0.5]];portConstraint=eastwest;top=0;left=0;right=0;bottom=0;" vertex="1" parent="Z7961qpFFhvH9Aq7nxz6-75">
          <mxGeometry y="150" width="180" height="30" as="geometry" />
        </mxCell>
        <mxCell id="Z7961qpFFhvH9Aq7nxz6-89" value="" style="shape=partialRectangle;connectable=0;fillColor=none;top=0;left=0;bottom=0;right=0;editable=1;overflow=hidden;" vertex="1" parent="Z7961qpFFhvH9Aq7nxz6-88">
          <mxGeometry width="30" height="30" as="geometry">
            <mxRectangle width="30" height="30" as="alternateBounds" />
          </mxGeometry>
        </mxCell>
        <mxCell id="Z7961qpFFhvH9Aq7nxz6-90" value="tarikh_servis" style="shape=partialRectangle;connectable=0;fillColor=none;top=0;left=0;bottom=0;right=0;align=left;spacingLeft=6;overflow=hidden;" vertex="1" parent="Z7961qpFFhvH9Aq7nxz6-88">
          <mxGeometry x="30" width="150" height="30" as="geometry">
            <mxRectangle width="150" height="30" as="alternateBounds" />
          </mxGeometry>
        </mxCell>
        <mxCell id="Z7961qpFFhvH9Aq7nxz6-91" value="" style="shape=tableRow;horizontal=0;startSize=0;swimlaneHead=0;swimlaneBody=0;fillColor=none;collapsible=0;dropTarget=0;points=[[0,0.5],[1,0.5]];portConstraint=eastwest;top=0;left=0;right=0;bottom=0;" vertex="1" parent="Z7961qpFFhvH9Aq7nxz6-75">
          <mxGeometry y="180" width="180" height="30" as="geometry" />
        </mxCell>
        <mxCell id="Z7961qpFFhvH9Aq7nxz6-92" value="" style="shape=partialRectangle;connectable=0;fillColor=none;top=0;left=0;bottom=0;right=0;editable=1;overflow=hidden;" vertex="1" parent="Z7961qpFFhvH9Aq7nxz6-91">
          <mxGeometry width="30" height="30" as="geometry">
            <mxRectangle width="30" height="30" as="alternateBounds" />
          </mxGeometry>
        </mxCell>
        <mxCell id="Z7961qpFFhvH9Aq7nxz6-93" value="status" style="shape=partialRectangle;connectable=0;fillColor=none;top=0;left=0;bottom=0;right=0;align=left;spacingLeft=6;overflow=hidden;" vertex="1" parent="Z7961qpFFhvH9Aq7nxz6-91">
          <mxGeometry x="30" width="150" height="30" as="geometry">
            <mxRectangle width="150" height="30" as="alternateBounds" />
          </mxGeometry>
        </mxCell>
        <mxCell id="Z7961qpFFhvH9Aq7nxz6-94" value="" style="shape=tableRow;horizontal=0;startSize=0;swimlaneHead=0;swimlaneBody=0;fillColor=none;collapsible=0;dropTarget=0;points=[[0,0.5],[1,0.5]];portConstraint=eastwest;top=0;left=0;right=0;bottom=0;" vertex="1" parent="Z7961qpFFhvH9Aq7nxz6-75">
          <mxGeometry y="210" width="180" height="30" as="geometry" />
        </mxCell>
        <mxCell id="Z7961qpFFhvH9Aq7nxz6-95" value="" style="shape=partialRectangle;connectable=0;fillColor=none;top=0;left=0;bottom=0;right=0;editable=1;overflow=hidden;" vertex="1" parent="Z7961qpFFhvH9Aq7nxz6-94">
          <mxGeometry width="30" height="30" as="geometry">
            <mxRectangle width="30" height="30" as="alternateBounds" />
          </mxGeometry>
        </mxCell>
        <mxCell id="Z7961qpFFhvH9Aq7nxz6-96" value="remark" style="shape=partialRectangle;connectable=0;fillColor=none;top=0;left=0;bottom=0;right=0;align=left;spacingLeft=6;overflow=hidden;" vertex="1" parent="Z7961qpFFhvH9Aq7nxz6-94">
          <mxGeometry x="30" width="150" height="30" as="geometry">
            <mxRectangle width="150" height="30" as="alternateBounds" />
          </mxGeometry>
        </mxCell>
        <mxCell id="Z7961qpFFhvH9Aq7nxz6-97" value="Servis" style="shape=table;startSize=30;container=1;collapsible=1;childLayout=tableLayout;fixedRows=1;rowLines=0;fontStyle=1;align=center;resizeLast=1;html=1;" vertex="1" parent="1">
          <mxGeometry x="453" y="-8" width="180" height="180" as="geometry" />
        </mxCell>
        <mxCell id="Z7961qpFFhvH9Aq7nxz6-98" value="" style="shape=tableRow;horizontal=0;startSize=0;swimlaneHead=0;swimlaneBody=0;fillColor=none;collapsible=0;dropTarget=0;points=[[0,0.5],[1,0.5]];portConstraint=eastwest;top=0;left=0;right=0;bottom=1;" vertex="1" parent="Z7961qpFFhvH9Aq7nxz6-97">
          <mxGeometry y="30" width="180" height="30" as="geometry" />
        </mxCell>
        <mxCell id="Z7961qpFFhvH9Aq7nxz6-99" value="PK" style="shape=partialRectangle;connectable=0;fillColor=none;top=0;left=0;bottom=0;right=0;fontStyle=1;overflow=hidden;whiteSpace=wrap;html=1;" vertex="1" parent="Z7961qpFFhvH9Aq7nxz6-98">
          <mxGeometry width="30" height="30" as="geometry">
            <mxRectangle width="30" height="30" as="alternateBounds" />
          </mxGeometry>
        </mxCell>
        <mxCell id="Z7961qpFFhvH9Aq7nxz6-100" value="id_servis" style="shape=partialRectangle;connectable=0;fillColor=none;top=0;left=0;bottom=0;right=0;align=left;spacingLeft=6;fontStyle=5;overflow=hidden;whiteSpace=wrap;html=1;" vertex="1" parent="Z7961qpFFhvH9Aq7nxz6-98">
          <mxGeometry x="30" width="150" height="30" as="geometry">
            <mxRectangle width="150" height="30" as="alternateBounds" />
          </mxGeometry>
        </mxCell>
        <mxCell id="Z7961qpFFhvH9Aq7nxz6-101" value="" style="shape=tableRow;horizontal=0;startSize=0;swimlaneHead=0;swimlaneBody=0;fillColor=none;collapsible=0;dropTarget=0;points=[[0,0.5],[1,0.5]];portConstraint=eastwest;top=0;left=0;right=0;bottom=0;" vertex="1" parent="Z7961qpFFhvH9Aq7nxz6-97">
          <mxGeometry y="60" width="180" height="30" as="geometry" />
        </mxCell>
        <mxCell id="Z7961qpFFhvH9Aq7nxz6-102" value="" style="shape=partialRectangle;connectable=0;fillColor=none;top=0;left=0;bottom=0;right=0;editable=1;overflow=hidden;whiteSpace=wrap;html=1;" vertex="1" parent="Z7961qpFFhvH9Aq7nxz6-101">
          <mxGeometry width="30" height="30" as="geometry">
            <mxRectangle width="30" height="30" as="alternateBounds" />
          </mxGeometry>
        </mxCell>
        <mxCell id="Z7961qpFFhvH9Aq7nxz6-103" value="nama_servis" style="shape=partialRectangle;connectable=0;fillColor=none;top=0;left=0;bottom=0;right=0;align=left;spacingLeft=6;overflow=hidden;whiteSpace=wrap;html=1;" vertex="1" parent="Z7961qpFFhvH9Aq7nxz6-101">
          <mxGeometry x="30" width="150" height="30" as="geometry">
            <mxRectangle width="150" height="30" as="alternateBounds" />
          </mxGeometry>
        </mxCell>
        <mxCell id="Z7961qpFFhvH9Aq7nxz6-104" value="" style="shape=tableRow;horizontal=0;startSize=0;swimlaneHead=0;swimlaneBody=0;fillColor=none;collapsible=0;dropTarget=0;points=[[0,0.5],[1,0.5]];portConstraint=eastwest;top=0;left=0;right=0;bottom=0;" vertex="1" parent="Z7961qpFFhvH9Aq7nxz6-97">
          <mxGeometry y="90" width="180" height="30" as="geometry" />
        </mxCell>
        <mxCell id="Z7961qpFFhvH9Aq7nxz6-105" value="" style="shape=partialRectangle;connectable=0;fillColor=none;top=0;left=0;bottom=0;right=0;editable=1;overflow=hidden;whiteSpace=wrap;html=1;" vertex="1" parent="Z7961qpFFhvH9Aq7nxz6-104">
          <mxGeometry width="30" height="30" as="geometry">
            <mxRectangle width="30" height="30" as="alternateBounds" />
          </mxGeometry>
        </mxCell>
        <mxCell id="Z7961qpFFhvH9Aq7nxz6-106" value="jenis_servis" style="shape=partialRectangle;connectable=0;fillColor=none;top=0;left=0;bottom=0;right=0;align=left;spacingLeft=6;overflow=hidden;whiteSpace=wrap;html=1;" vertex="1" parent="Z7961qpFFhvH9Aq7nxz6-104">
          <mxGeometry x="30" width="150" height="30" as="geometry">
            <mxRectangle width="150" height="30" as="alternateBounds" />
          </mxGeometry>
        </mxCell>
        <mxCell id="Z7961qpFFhvH9Aq7nxz6-107" value="" style="shape=tableRow;horizontal=0;startSize=0;swimlaneHead=0;swimlaneBody=0;fillColor=none;collapsible=0;dropTarget=0;points=[[0,0.5],[1,0.5]];portConstraint=eastwest;top=0;left=0;right=0;bottom=0;" vertex="1" parent="Z7961qpFFhvH9Aq7nxz6-97">
          <mxGeometry y="120" width="180" height="30" as="geometry" />
        </mxCell>
        <mxCell id="Z7961qpFFhvH9Aq7nxz6-108" value="" style="shape=partialRectangle;connectable=0;fillColor=none;top=0;left=0;bottom=0;right=0;editable=1;overflow=hidden;" vertex="1" parent="Z7961qpFFhvH9Aq7nxz6-107">
          <mxGeometry width="30" height="30" as="geometry">
            <mxRectangle width="30" height="30" as="alternateBounds" />
          </mxGeometry>
        </mxCell>
        <mxCell id="Z7961qpFFhvH9Aq7nxz6-109" value="harga" style="shape=partialRectangle;connectable=0;fillColor=none;top=0;left=0;bottom=0;right=0;align=left;spacingLeft=6;overflow=hidden;" vertex="1" parent="Z7961qpFFhvH9Aq7nxz6-107">
          <mxGeometry x="30" width="150" height="30" as="geometry">
            <mxRectangle width="150" height="30" as="alternateBounds" />
          </mxGeometry>
        </mxCell>
        <mxCell id="Z7961qpFFhvH9Aq7nxz6-110" value="" style="shape=tableRow;horizontal=0;startSize=0;swimlaneHead=0;swimlaneBody=0;fillColor=none;collapsible=0;dropTarget=0;points=[[0,0.5],[1,0.5]];portConstraint=eastwest;top=0;left=0;right=0;bottom=0;" vertex="1" parent="Z7961qpFFhvH9Aq7nxz6-97">
          <mxGeometry y="150" width="180" height="30" as="geometry" />
        </mxCell>
        <mxCell id="Z7961qpFFhvH9Aq7nxz6-111" value="" style="shape=partialRectangle;connectable=0;fillColor=none;top=0;left=0;bottom=0;right=0;editable=1;overflow=hidden;" vertex="1" parent="Z7961qpFFhvH9Aq7nxz6-110">
          <mxGeometry width="30" height="30" as="geometry">
            <mxRectangle width="30" height="30" as="alternateBounds" />
          </mxGeometry>
        </mxCell>
        <mxCell id="Z7961qpFFhvH9Aq7nxz6-112" value="tempoh_masa" style="shape=partialRectangle;connectable=0;fillColor=none;top=0;left=0;bottom=0;right=0;align=left;spacingLeft=6;overflow=hidden;" vertex="1" parent="Z7961qpFFhvH9Aq7nxz6-110">
          <mxGeometry x="30" width="150" height="30" as="geometry">
            <mxRectangle width="150" height="30" as="alternateBounds" />
          </mxGeometry>
        </mxCell>
        <mxCell id="Z7961qpFFhvH9Aq7nxz6-113" value="Kewangan" style="shape=table;startSize=30;container=1;collapsible=1;childLayout=tableLayout;fixedRows=1;rowLines=0;fontStyle=1;align=center;resizeLast=1;html=1;" vertex="1" parent="1">
          <mxGeometry x="853" y="642" width="180" height="210" as="geometry" />
        </mxCell>
        <mxCell id="Z7961qpFFhvH9Aq7nxz6-114" value="" style="shape=tableRow;horizontal=0;startSize=0;swimlaneHead=0;swimlaneBody=0;fillColor=none;collapsible=0;dropTarget=0;points=[[0,0.5],[1,0.5]];portConstraint=eastwest;top=0;left=0;right=0;bottom=1;" vertex="1" parent="Z7961qpFFhvH9Aq7nxz6-113">
          <mxGeometry y="30" width="180" height="30" as="geometry" />
        </mxCell>
        <mxCell id="Z7961qpFFhvH9Aq7nxz6-115" value="PK" style="shape=partialRectangle;connectable=0;fillColor=none;top=0;left=0;bottom=0;right=0;fontStyle=1;overflow=hidden;whiteSpace=wrap;html=1;" vertex="1" parent="Z7961qpFFhvH9Aq7nxz6-114">
          <mxGeometry width="30" height="30" as="geometry">
            <mxRectangle width="30" height="30" as="alternateBounds" />
          </mxGeometry>
        </mxCell>
        <mxCell id="Z7961qpFFhvH9Aq7nxz6-116" value="id_transaksi" style="shape=partialRectangle;connectable=0;fillColor=none;top=0;left=0;bottom=0;right=0;align=left;spacingLeft=6;fontStyle=5;overflow=hidden;whiteSpace=wrap;html=1;" vertex="1" parent="Z7961qpFFhvH9Aq7nxz6-114">
          <mxGeometry x="30" width="150" height="30" as="geometry">
            <mxRectangle width="150" height="30" as="alternateBounds" />
          </mxGeometry>
        </mxCell>
        <mxCell id="Z7961qpFFhvH9Aq7nxz6-117" value="" style="shape=tableRow;horizontal=0;startSize=0;swimlaneHead=0;swimlaneBody=0;fillColor=none;collapsible=0;dropTarget=0;points=[[0,0.5],[1,0.5]];portConstraint=eastwest;top=0;left=0;right=0;bottom=0;" vertex="1" parent="Z7961qpFFhvH9Aq7nxz6-113">
          <mxGeometry y="60" width="180" height="30" as="geometry" />
        </mxCell>
        <mxCell id="Z7961qpFFhvH9Aq7nxz6-118" value="FK" style="shape=partialRectangle;connectable=0;fillColor=none;top=0;left=0;bottom=0;right=0;editable=1;overflow=hidden;whiteSpace=wrap;html=1;" vertex="1" parent="Z7961qpFFhvH9Aq7nxz6-117">
          <mxGeometry width="30" height="30" as="geometry">
            <mxRectangle width="30" height="30" as="alternateBounds" />
          </mxGeometry>
        </mxCell>
        <mxCell id="Z7961qpFFhvH9Aq7nxz6-119" value="id_tempahan" style="shape=partialRectangle;connectable=0;fillColor=none;top=0;left=0;bottom=0;right=0;align=left;spacingLeft=6;overflow=hidden;whiteSpace=wrap;html=1;" vertex="1" parent="Z7961qpFFhvH9Aq7nxz6-117">
          <mxGeometry x="30" width="150" height="30" as="geometry">
            <mxRectangle width="150" height="30" as="alternateBounds" />
          </mxGeometry>
        </mxCell>
        <mxCell id="Z7961qpFFhvH9Aq7nxz6-120" value="" style="shape=tableRow;horizontal=0;startSize=0;swimlaneHead=0;swimlaneBody=0;fillColor=none;collapsible=0;dropTarget=0;points=[[0,0.5],[1,0.5]];portConstraint=eastwest;top=0;left=0;right=0;bottom=0;" vertex="1" parent="Z7961qpFFhvH9Aq7nxz6-113">
          <mxGeometry y="90" width="180" height="30" as="geometry" />
        </mxCell>
        <mxCell id="Z7961qpFFhvH9Aq7nxz6-121" value="" style="shape=partialRectangle;connectable=0;fillColor=none;top=0;left=0;bottom=0;right=0;editable=1;overflow=hidden;whiteSpace=wrap;html=1;" vertex="1" parent="Z7961qpFFhvH9Aq7nxz6-120">
          <mxGeometry width="30" height="30" as="geometry">
            <mxRectangle width="30" height="30" as="alternateBounds" />
          </mxGeometry>
        </mxCell>
        <mxCell id="Z7961qpFFhvH9Aq7nxz6-122" value="masa_pembayaran" style="shape=partialRectangle;connectable=0;fillColor=none;top=0;left=0;bottom=0;right=0;align=left;spacingLeft=6;overflow=hidden;whiteSpace=wrap;html=1;" vertex="1" parent="Z7961qpFFhvH9Aq7nxz6-120">
          <mxGeometry x="30" width="150" height="30" as="geometry">
            <mxRectangle width="150" height="30" as="alternateBounds" />
          </mxGeometry>
        </mxCell>
        <mxCell id="Z7961qpFFhvH9Aq7nxz6-123" value="" style="shape=tableRow;horizontal=0;startSize=0;swimlaneHead=0;swimlaneBody=0;fillColor=none;collapsible=0;dropTarget=0;points=[[0,0.5],[1,0.5]];portConstraint=eastwest;top=0;left=0;right=0;bottom=0;" vertex="1" parent="Z7961qpFFhvH9Aq7nxz6-113">
          <mxGeometry y="120" width="180" height="30" as="geometry" />
        </mxCell>
        <mxCell id="Z7961qpFFhvH9Aq7nxz6-124" value="" style="shape=partialRectangle;connectable=0;fillColor=none;top=0;left=0;bottom=0;right=0;editable=1;overflow=hidden;" vertex="1" parent="Z7961qpFFhvH9Aq7nxz6-123">
          <mxGeometry width="30" height="30" as="geometry">
            <mxRectangle width="30" height="30" as="alternateBounds" />
          </mxGeometry>
        </mxCell>
        <mxCell id="Z7961qpFFhvH9Aq7nxz6-125" value="jumlah" style="shape=partialRectangle;connectable=0;fillColor=none;top=0;left=0;bottom=0;right=0;align=left;spacingLeft=6;overflow=hidden;" vertex="1" parent="Z7961qpFFhvH9Aq7nxz6-123">
          <mxGeometry x="30" width="150" height="30" as="geometry">
            <mxRectangle width="150" height="30" as="alternateBounds" />
          </mxGeometry>
        </mxCell>
        <mxCell id="Z7961qpFFhvH9Aq7nxz6-126" value="" style="shape=tableRow;horizontal=0;startSize=0;swimlaneHead=0;swimlaneBody=0;fillColor=none;collapsible=0;dropTarget=0;points=[[0,0.5],[1,0.5]];portConstraint=eastwest;top=0;left=0;right=0;bottom=0;" vertex="1" parent="Z7961qpFFhvH9Aq7nxz6-113">
          <mxGeometry y="150" width="180" height="30" as="geometry" />
        </mxCell>
        <mxCell id="Z7961qpFFhvH9Aq7nxz6-127" value="" style="shape=partialRectangle;connectable=0;fillColor=none;top=0;left=0;bottom=0;right=0;editable=1;overflow=hidden;" vertex="1" parent="Z7961qpFFhvH9Aq7nxz6-126">
          <mxGeometry width="30" height="30" as="geometry">
            <mxRectangle width="30" height="30" as="alternateBounds" />
          </mxGeometry>
        </mxCell>
        <mxCell id="Z7961qpFFhvH9Aq7nxz6-128" value="jenis_pembayaran" style="shape=partialRectangle;connectable=0;fillColor=none;top=0;left=0;bottom=0;right=0;align=left;spacingLeft=6;overflow=hidden;" vertex="1" parent="Z7961qpFFhvH9Aq7nxz6-126">
          <mxGeometry x="30" width="150" height="30" as="geometry">
            <mxRectangle width="150" height="30" as="alternateBounds" />
          </mxGeometry>
        </mxCell>
        <mxCell id="Z7961qpFFhvH9Aq7nxz6-129" value="" style="shape=tableRow;horizontal=0;startSize=0;swimlaneHead=0;swimlaneBody=0;fillColor=none;collapsible=0;dropTarget=0;points=[[0,0.5],[1,0.5]];portConstraint=eastwest;top=0;left=0;right=0;bottom=0;" vertex="1" parent="Z7961qpFFhvH9Aq7nxz6-113">
          <mxGeometry y="180" width="180" height="30" as="geometry" />
        </mxCell>
        <mxCell id="Z7961qpFFhvH9Aq7nxz6-130" value="" style="shape=partialRectangle;connectable=0;fillColor=none;top=0;left=0;bottom=0;right=0;editable=1;overflow=hidden;" vertex="1" parent="Z7961qpFFhvH9Aq7nxz6-129">
          <mxGeometry width="30" height="30" as="geometry">
            <mxRectangle width="30" height="30" as="alternateBounds" />
          </mxGeometry>
        </mxCell>
        <mxCell id="Z7961qpFFhvH9Aq7nxz6-131" value="Status" style="shape=partialRectangle;connectable=0;fillColor=none;top=0;left=0;bottom=0;right=0;align=left;spacingLeft=6;overflow=hidden;" vertex="1" parent="Z7961qpFFhvH9Aq7nxz6-129">
          <mxGeometry x="30" width="150" height="30" as="geometry">
            <mxRectangle width="150" height="30" as="alternateBounds" />
          </mxGeometry>
        </mxCell>
        <mxCell id="Z7961qpFFhvH9Aq7nxz6-135" style="edgeStyle=orthogonalEdgeStyle;rounded=0;orthogonalLoop=1;jettySize=auto;html=1;entryX=1;entryY=0.5;entryDx=0;entryDy=0;exitX=1;exitY=0.5;exitDx=0;exitDy=0;" edge="1" parent="1" source="Z7961qpFFhvH9Aq7nxz6-141" target="Z7961qpFFhvH9Aq7nxz6-164">
          <mxGeometry relative="1" as="geometry">
            <Array as="points">
              <mxPoint x="1569" y="657" />
              <mxPoint x="1569" y="387" />
              <mxPoint x="1213" y="387" />
            </Array>
          </mxGeometry>
        </mxCell>
        <mxCell id="Z7961qpFFhvH9Aq7nxz6-136" style="edgeStyle=orthogonalEdgeStyle;rounded=0;orthogonalLoop=1;jettySize=auto;html=1;entryX=1;entryY=0.5;entryDx=0;entryDy=0;" edge="1" parent="1" source="Z7961qpFFhvH9Aq7nxz6-137" target="Z7961qpFFhvH9Aq7nxz6-39">
          <mxGeometry relative="1" as="geometry" />
        </mxCell>
        <mxCell id="Z7961qpFFhvH9Aq7nxz6-137" value="Pengurus" style="shape=table;startSize=30;container=1;collapsible=1;childLayout=tableLayout;fixedRows=1;rowLines=0;fontStyle=1;align=center;resizeLast=1;html=1;" vertex="1" parent="1">
          <mxGeometry x="1354" y="582" width="180" height="150" as="geometry" />
        </mxCell>
        <mxCell id="Z7961qpFFhvH9Aq7nxz6-138" value="" style="shape=tableRow;horizontal=0;startSize=0;swimlaneHead=0;swimlaneBody=0;fillColor=none;collapsible=0;dropTarget=0;points=[[0,0.5],[1,0.5]];portConstraint=eastwest;top=0;left=0;right=0;bottom=1;" vertex="1" parent="Z7961qpFFhvH9Aq7nxz6-137">
          <mxGeometry y="30" width="180" height="30" as="geometry" />
        </mxCell>
        <mxCell id="Z7961qpFFhvH9Aq7nxz6-139" value="PK" style="shape=partialRectangle;connectable=0;fillColor=none;top=0;left=0;bottom=0;right=0;fontStyle=1;overflow=hidden;whiteSpace=wrap;html=1;" vertex="1" parent="Z7961qpFFhvH9Aq7nxz6-138">
          <mxGeometry width="30" height="30" as="geometry">
            <mxRectangle width="30" height="30" as="alternateBounds" />
          </mxGeometry>
        </mxCell>
        <mxCell id="Z7961qpFFhvH9Aq7nxz6-140" value="id_pengurus" style="shape=partialRectangle;connectable=0;fillColor=none;top=0;left=0;bottom=0;right=0;align=left;spacingLeft=6;fontStyle=5;overflow=hidden;whiteSpace=wrap;html=1;" vertex="1" parent="Z7961qpFFhvH9Aq7nxz6-138">
          <mxGeometry x="30" width="150" height="30" as="geometry">
            <mxRectangle width="150" height="30" as="alternateBounds" />
          </mxGeometry>
        </mxCell>
        <mxCell id="Z7961qpFFhvH9Aq7nxz6-141" value="" style="shape=tableRow;horizontal=0;startSize=0;swimlaneHead=0;swimlaneBody=0;fillColor=none;collapsible=0;dropTarget=0;points=[[0,0.5],[1,0.5]];portConstraint=eastwest;top=0;left=0;right=0;bottom=0;" vertex="1" parent="Z7961qpFFhvH9Aq7nxz6-137">
          <mxGeometry y="60" width="180" height="30" as="geometry" />
        </mxCell>
        <mxCell id="Z7961qpFFhvH9Aq7nxz6-142" value="" style="shape=partialRectangle;connectable=0;fillColor=none;top=0;left=0;bottom=0;right=0;editable=1;overflow=hidden;whiteSpace=wrap;html=1;" vertex="1" parent="Z7961qpFFhvH9Aq7nxz6-141">
          <mxGeometry width="30" height="30" as="geometry">
            <mxRectangle width="30" height="30" as="alternateBounds" />
          </mxGeometry>
        </mxCell>
        <mxCell id="Z7961qpFFhvH9Aq7nxz6-143" value="nama" style="shape=partialRectangle;connectable=0;fillColor=none;top=0;left=0;bottom=0;right=0;align=left;spacingLeft=6;overflow=hidden;whiteSpace=wrap;html=1;" vertex="1" parent="Z7961qpFFhvH9Aq7nxz6-141">
          <mxGeometry x="30" width="150" height="30" as="geometry">
            <mxRectangle width="150" height="30" as="alternateBounds" />
          </mxGeometry>
        </mxCell>
        <mxCell id="Z7961qpFFhvH9Aq7nxz6-144" value="" style="shape=tableRow;horizontal=0;startSize=0;swimlaneHead=0;swimlaneBody=0;fillColor=none;collapsible=0;dropTarget=0;points=[[0,0.5],[1,0.5]];portConstraint=eastwest;top=0;left=0;right=0;bottom=0;" vertex="1" parent="Z7961qpFFhvH9Aq7nxz6-137">
          <mxGeometry y="90" width="180" height="30" as="geometry" />
        </mxCell>
        <mxCell id="Z7961qpFFhvH9Aq7nxz6-145" value="" style="shape=partialRectangle;connectable=0;fillColor=none;top=0;left=0;bottom=0;right=0;editable=1;overflow=hidden;whiteSpace=wrap;html=1;" vertex="1" parent="Z7961qpFFhvH9Aq7nxz6-144">
          <mxGeometry width="30" height="30" as="geometry">
            <mxRectangle width="30" height="30" as="alternateBounds" />
          </mxGeometry>
        </mxCell>
        <mxCell id="Z7961qpFFhvH9Aq7nxz6-146" value="no_telefon" style="shape=partialRectangle;connectable=0;fillColor=none;top=0;left=0;bottom=0;right=0;align=left;spacingLeft=6;overflow=hidden;whiteSpace=wrap;html=1;" vertex="1" parent="Z7961qpFFhvH9Aq7nxz6-144">
          <mxGeometry x="30" width="150" height="30" as="geometry">
            <mxRectangle width="150" height="30" as="alternateBounds" />
          </mxGeometry>
        </mxCell>
        <mxCell id="Z7961qpFFhvH9Aq7nxz6-147" value="" style="shape=tableRow;horizontal=0;startSize=0;swimlaneHead=0;swimlaneBody=0;fillColor=none;collapsible=0;dropTarget=0;points=[[0,0.5],[1,0.5]];portConstraint=eastwest;top=0;left=0;right=0;bottom=0;" vertex="1" parent="Z7961qpFFhvH9Aq7nxz6-137">
          <mxGeometry y="120" width="180" height="30" as="geometry" />
        </mxCell>
        <mxCell id="Z7961qpFFhvH9Aq7nxz6-148" value="" style="shape=partialRectangle;connectable=0;fillColor=none;top=0;left=0;bottom=0;right=0;editable=1;overflow=hidden;" vertex="1" parent="Z7961qpFFhvH9Aq7nxz6-147">
          <mxGeometry width="30" height="30" as="geometry">
            <mxRectangle width="30" height="30" as="alternateBounds" />
          </mxGeometry>
        </mxCell>
        <mxCell id="Z7961qpFFhvH9Aq7nxz6-149" value="email" style="shape=partialRectangle;connectable=0;fillColor=none;top=0;left=0;bottom=0;right=0;align=left;spacingLeft=6;overflow=hidden;" vertex="1" parent="Z7961qpFFhvH9Aq7nxz6-147">
          <mxGeometry x="30" width="150" height="30" as="geometry">
            <mxRectangle width="150" height="30" as="alternateBounds" />
          </mxGeometry>
        </mxCell>
        <mxCell id="Z7961qpFFhvH9Aq7nxz6-150" style="edgeStyle=orthogonalEdgeStyle;rounded=0;orthogonalLoop=1;jettySize=auto;html=1;entryX=1;entryY=0.5;entryDx=0;entryDy=0;exitX=0.52;exitY=1.01;exitDx=0;exitDy=0;exitPerimeter=0;" edge="1" parent="1" source="Z7961qpFFhvH9Aq7nxz6-173" target="Z7961qpFFhvH9Aq7nxz6-69">
          <mxGeometry relative="1" as="geometry">
            <mxPoint x="833" y="592" as="targetPoint" />
            <Array as="points">
              <mxPoint x="1107" y="492" />
              <mxPoint x="1253" y="492" />
              <mxPoint x="1253" y="597" />
            </Array>
          </mxGeometry>
        </mxCell>
        <mxCell id="Z7961qpFFhvH9Aq7nxz6-151" value="Pekerja" style="shape=table;startSize=30;container=1;collapsible=1;childLayout=tableLayout;fixedRows=1;rowLines=0;fontStyle=1;align=center;resizeLast=1;html=1;" vertex="1" parent="1">
          <mxGeometry x="1013" y="192" width="180" height="270" as="geometry" />
        </mxCell>
        <mxCell id="Z7961qpFFhvH9Aq7nxz6-152" value="" style="shape=tableRow;horizontal=0;startSize=0;swimlaneHead=0;swimlaneBody=0;fillColor=none;collapsible=0;dropTarget=0;points=[[0,0.5],[1,0.5]];portConstraint=eastwest;top=0;left=0;right=0;bottom=1;" vertex="1" parent="Z7961qpFFhvH9Aq7nxz6-151">
          <mxGeometry y="30" width="180" height="30" as="geometry" />
        </mxCell>
        <mxCell id="Z7961qpFFhvH9Aq7nxz6-153" value="PK" style="shape=partialRectangle;connectable=0;fillColor=none;top=0;left=0;bottom=0;right=0;fontStyle=1;overflow=hidden;whiteSpace=wrap;html=1;" vertex="1" parent="Z7961qpFFhvH9Aq7nxz6-152">
          <mxGeometry width="30" height="30" as="geometry">
            <mxRectangle width="30" height="30" as="alternateBounds" />
          </mxGeometry>
        </mxCell>
        <mxCell id="Z7961qpFFhvH9Aq7nxz6-154" value="id_pekerja" style="shape=partialRectangle;connectable=0;fillColor=none;top=0;left=0;bottom=0;right=0;align=left;spacingLeft=6;fontStyle=5;overflow=hidden;whiteSpace=wrap;html=1;" vertex="1" parent="Z7961qpFFhvH9Aq7nxz6-152">
          <mxGeometry x="30" width="150" height="30" as="geometry">
            <mxRectangle width="150" height="30" as="alternateBounds" />
          </mxGeometry>
        </mxCell>
        <mxCell id="Z7961qpFFhvH9Aq7nxz6-155" value="" style="shape=tableRow;horizontal=0;startSize=0;swimlaneHead=0;swimlaneBody=0;fillColor=none;collapsible=0;dropTarget=0;points=[[0,0.5],[1,0.5]];portConstraint=eastwest;top=0;left=0;right=0;bottom=0;" vertex="1" parent="Z7961qpFFhvH9Aq7nxz6-151">
          <mxGeometry y="60" width="180" height="30" as="geometry" />
        </mxCell>
        <mxCell id="Z7961qpFFhvH9Aq7nxz6-156" value="FK" style="shape=partialRectangle;connectable=0;fillColor=none;top=0;left=0;bottom=0;right=0;editable=1;overflow=hidden;whiteSpace=wrap;html=1;" vertex="1" parent="Z7961qpFFhvH9Aq7nxz6-155">
          <mxGeometry width="30" height="30" as="geometry">
            <mxRectangle width="30" height="30" as="alternateBounds" />
          </mxGeometry>
        </mxCell>
        <mxCell id="Z7961qpFFhvH9Aq7nxz6-157" value="id_pengurus" style="shape=partialRectangle;connectable=0;fillColor=none;top=0;left=0;bottom=0;right=0;align=left;spacingLeft=6;overflow=hidden;whiteSpace=wrap;html=1;" vertex="1" parent="Z7961qpFFhvH9Aq7nxz6-155">
          <mxGeometry x="30" width="150" height="30" as="geometry">
            <mxRectangle width="150" height="30" as="alternateBounds" />
          </mxGeometry>
        </mxCell>
        <mxCell id="Z7961qpFFhvH9Aq7nxz6-158" value="" style="shape=tableRow;horizontal=0;startSize=0;swimlaneHead=0;swimlaneBody=0;fillColor=none;collapsible=0;dropTarget=0;points=[[0,0.5],[1,0.5]];portConstraint=eastwest;top=0;left=0;right=0;bottom=0;" vertex="1" parent="Z7961qpFFhvH9Aq7nxz6-151">
          <mxGeometry y="90" width="180" height="30" as="geometry" />
        </mxCell>
        <mxCell id="Z7961qpFFhvH9Aq7nxz6-159" value="" style="shape=partialRectangle;connectable=0;fillColor=none;top=0;left=0;bottom=0;right=0;editable=1;overflow=hidden;whiteSpace=wrap;html=1;" vertex="1" parent="Z7961qpFFhvH9Aq7nxz6-158">
          <mxGeometry width="30" height="30" as="geometry">
            <mxRectangle width="30" height="30" as="alternateBounds" />
          </mxGeometry>
        </mxCell>
        <mxCell id="Z7961qpFFhvH9Aq7nxz6-160" value="nama" style="shape=partialRectangle;connectable=0;fillColor=none;top=0;left=0;bottom=0;right=0;align=left;spacingLeft=6;overflow=hidden;whiteSpace=wrap;html=1;" vertex="1" parent="Z7961qpFFhvH9Aq7nxz6-158">
          <mxGeometry x="30" width="150" height="30" as="geometry">
            <mxRectangle width="150" height="30" as="alternateBounds" />
          </mxGeometry>
        </mxCell>
        <mxCell id="Z7961qpFFhvH9Aq7nxz6-161" value="" style="shape=tableRow;horizontal=0;startSize=0;swimlaneHead=0;swimlaneBody=0;fillColor=none;collapsible=0;dropTarget=0;points=[[0,0.5],[1,0.5]];portConstraint=eastwest;top=0;left=0;right=0;bottom=0;" vertex="1" parent="Z7961qpFFhvH9Aq7nxz6-151">
          <mxGeometry y="120" width="180" height="30" as="geometry" />
        </mxCell>
        <mxCell id="Z7961qpFFhvH9Aq7nxz6-162" value="" style="shape=partialRectangle;connectable=0;fillColor=none;top=0;left=0;bottom=0;right=0;editable=1;overflow=hidden;" vertex="1" parent="Z7961qpFFhvH9Aq7nxz6-161">
          <mxGeometry width="30" height="30" as="geometry">
            <mxRectangle width="30" height="30" as="alternateBounds" />
          </mxGeometry>
        </mxCell>
        <mxCell id="Z7961qpFFhvH9Aq7nxz6-163" value="no_telefon" style="shape=partialRectangle;connectable=0;fillColor=none;top=0;left=0;bottom=0;right=0;align=left;spacingLeft=6;overflow=hidden;" vertex="1" parent="Z7961qpFFhvH9Aq7nxz6-161">
          <mxGeometry x="30" width="150" height="30" as="geometry">
            <mxRectangle width="150" height="30" as="alternateBounds" />
          </mxGeometry>
        </mxCell>
        <mxCell id="Z7961qpFFhvH9Aq7nxz6-164" value="" style="shape=tableRow;horizontal=0;startSize=0;swimlaneHead=0;swimlaneBody=0;fillColor=none;collapsible=0;dropTarget=0;points=[[0,0.5],[1,0.5]];portConstraint=eastwest;top=0;left=0;right=0;bottom=0;" vertex="1" parent="Z7961qpFFhvH9Aq7nxz6-151">
          <mxGeometry y="150" width="180" height="30" as="geometry" />
        </mxCell>
        <mxCell id="Z7961qpFFhvH9Aq7nxz6-165" value="" style="shape=partialRectangle;connectable=0;fillColor=none;top=0;left=0;bottom=0;right=0;editable=1;overflow=hidden;" vertex="1" parent="Z7961qpFFhvH9Aq7nxz6-164">
          <mxGeometry width="30" height="30" as="geometry">
            <mxRectangle width="30" height="30" as="alternateBounds" />
          </mxGeometry>
        </mxCell>
        <mxCell id="Z7961qpFFhvH9Aq7nxz6-166" value="email" style="shape=partialRectangle;connectable=0;fillColor=none;top=0;left=0;bottom=0;right=0;align=left;spacingLeft=6;overflow=hidden;" vertex="1" parent="Z7961qpFFhvH9Aq7nxz6-164">
          <mxGeometry x="30" width="150" height="30" as="geometry">
            <mxRectangle width="150" height="30" as="alternateBounds" />
          </mxGeometry>
        </mxCell>
        <mxCell id="Z7961qpFFhvH9Aq7nxz6-167" value="" style="shape=tableRow;horizontal=0;startSize=0;swimlaneHead=0;swimlaneBody=0;fillColor=none;collapsible=0;dropTarget=0;points=[[0,0.5],[1,0.5]];portConstraint=eastwest;top=0;left=0;right=0;bottom=0;" vertex="1" parent="Z7961qpFFhvH9Aq7nxz6-151">
          <mxGeometry y="180" width="180" height="30" as="geometry" />
        </mxCell>
        <mxCell id="Z7961qpFFhvH9Aq7nxz6-168" value="" style="shape=partialRectangle;connectable=0;fillColor=none;top=0;left=0;bottom=0;right=0;editable=1;overflow=hidden;" vertex="1" parent="Z7961qpFFhvH9Aq7nxz6-167">
          <mxGeometry width="30" height="30" as="geometry">
            <mxRectangle width="30" height="30" as="alternateBounds" />
          </mxGeometry>
        </mxCell>
        <mxCell id="Z7961qpFFhvH9Aq7nxz6-169" value="kedudukan" style="shape=partialRectangle;connectable=0;fillColor=none;top=0;left=0;bottom=0;right=0;align=left;spacingLeft=6;overflow=hidden;" vertex="1" parent="Z7961qpFFhvH9Aq7nxz6-167">
          <mxGeometry x="30" width="150" height="30" as="geometry">
            <mxRectangle width="150" height="30" as="alternateBounds" />
          </mxGeometry>
        </mxCell>
        <mxCell id="Z7961qpFFhvH9Aq7nxz6-170" value="" style="shape=tableRow;horizontal=0;startSize=0;swimlaneHead=0;swimlaneBody=0;fillColor=none;collapsible=0;dropTarget=0;points=[[0,0.5],[1,0.5]];portConstraint=eastwest;top=0;left=0;right=0;bottom=0;" vertex="1" parent="Z7961qpFFhvH9Aq7nxz6-151">
          <mxGeometry y="210" width="180" height="30" as="geometry" />
        </mxCell>
        <mxCell id="Z7961qpFFhvH9Aq7nxz6-171" value="" style="shape=partialRectangle;connectable=0;fillColor=none;top=0;left=0;bottom=0;right=0;editable=1;overflow=hidden;" vertex="1" parent="Z7961qpFFhvH9Aq7nxz6-170">
          <mxGeometry width="30" height="30" as="geometry">
            <mxRectangle width="30" height="30" as="alternateBounds" />
          </mxGeometry>
        </mxCell>
        <mxCell id="Z7961qpFFhvH9Aq7nxz6-172" value="tarikh_masuk" style="shape=partialRectangle;connectable=0;fillColor=none;top=0;left=0;bottom=0;right=0;align=left;spacingLeft=6;overflow=hidden;" vertex="1" parent="Z7961qpFFhvH9Aq7nxz6-170">
          <mxGeometry x="30" width="150" height="30" as="geometry">
            <mxRectangle width="150" height="30" as="alternateBounds" />
          </mxGeometry>
        </mxCell>
        <mxCell id="Z7961qpFFhvH9Aq7nxz6-173" value="" style="shape=tableRow;horizontal=0;startSize=0;swimlaneHead=0;swimlaneBody=0;fillColor=none;collapsible=0;dropTarget=0;points=[[0,0.5],[1,0.5]];portConstraint=eastwest;top=0;left=0;right=0;bottom=0;" vertex="1" parent="Z7961qpFFhvH9Aq7nxz6-151">
          <mxGeometry y="240" width="180" height="30" as="geometry" />
        </mxCell>
        <mxCell id="Z7961qpFFhvH9Aq7nxz6-174" value="" style="shape=partialRectangle;connectable=0;fillColor=none;top=0;left=0;bottom=0;right=0;editable=1;overflow=hidden;" vertex="1" parent="Z7961qpFFhvH9Aq7nxz6-173">
          <mxGeometry width="30" height="30" as="geometry">
            <mxRectangle width="30" height="30" as="alternateBounds" />
          </mxGeometry>
        </mxCell>
        <mxCell id="Z7961qpFFhvH9Aq7nxz6-175" value="status" style="shape=partialRectangle;connectable=0;fillColor=none;top=0;left=0;bottom=0;right=0;align=left;spacingLeft=6;overflow=hidden;" vertex="1" parent="Z7961qpFFhvH9Aq7nxz6-173">
          <mxGeometry x="30" width="150" height="30" as="geometry">
            <mxRectangle width="150" height="30" as="alternateBounds" />
          </mxGeometry>
        </mxCell>
        <mxCell id="Z7961qpFFhvH9Aq7nxz6-176" style="edgeStyle=orthogonalEdgeStyle;rounded=0;orthogonalLoop=1;jettySize=auto;html=1;exitX=1;exitY=0.5;exitDx=0;exitDy=0;entryX=0.007;entryY=0.198;entryDx=0;entryDy=0;entryPerimeter=0;" edge="1" parent="1" source="Z7961qpFFhvH9Aq7nxz6-14" target="Z7961qpFFhvH9Aq7nxz6-63">
          <mxGeometry relative="1" as="geometry" />
        </mxCell>
        <mxCell id="Z7961qpFFhvH9Aq7nxz6-177" value="&lt;font style=&quot;font-size: 23px;&quot;&gt;1&lt;/font&gt;" style="edgeLabel;html=1;align=center;verticalAlign=middle;resizable=0;points=[];" vertex="1" connectable="0" parent="Z7961qpFFhvH9Aq7nxz6-176">
          <mxGeometry x="-0.9335" relative="1" as="geometry">
            <mxPoint as="offset" />
          </mxGeometry>
        </mxCell>
        <mxCell id="Z7961qpFFhvH9Aq7nxz6-178" value="&lt;span style=&quot;font-size: 23px;&quot;&gt;M&lt;/span&gt;" style="edgeLabel;html=1;align=center;verticalAlign=middle;resizable=0;points=[];" vertex="1" connectable="0" parent="1">
          <mxGeometry x="553" y="526" as="geometry">
            <mxPoint x="-3" y="-1" as="offset" />
          </mxGeometry>
        </mxCell>
        <mxCell id="Z7961qpFFhvH9Aq7nxz6-179" style="edgeStyle=orthogonalEdgeStyle;rounded=0;orthogonalLoop=1;jettySize=auto;html=1;entryX=0.514;entryY=1.008;entryDx=0;entryDy=0;entryPerimeter=0;" edge="1" parent="1" source="Z7961qpFFhvH9Aq7nxz6-63" target="Z7961qpFFhvH9Aq7nxz6-94">
          <mxGeometry relative="1" as="geometry" />
        </mxCell>
        <mxCell id="Z7961qpFFhvH9Aq7nxz6-180" value="&lt;font style=&quot;font-size: 23px;&quot;&gt;1&lt;/font&gt;" style="edgeLabel;html=1;align=center;verticalAlign=middle;resizable=0;points=[];" vertex="1" connectable="0" parent="1">
          <mxGeometry x="783" y="532" as="geometry" />
        </mxCell>
        <mxCell id="Z7961qpFFhvH9Aq7nxz6-181" value="&lt;font style=&quot;font-size: 23px;&quot;&gt;1&lt;/font&gt;" style="edgeLabel;html=1;align=center;verticalAlign=middle;resizable=0;points=[];" vertex="1" connectable="0" parent="1">
          <mxGeometry x="853" y="272" as="geometry" />
        </mxCell>
        <mxCell id="Z7961qpFFhvH9Aq7nxz6-182" value="&lt;font style=&quot;font-size: 23px;&quot;&gt;1&lt;/font&gt;" style="edgeLabel;html=1;align=center;verticalAlign=middle;resizable=0;points=[];" vertex="1" connectable="0" parent="1">
          <mxGeometry x="671" y="679" as="geometry" />
        </mxCell>
        <mxCell id="Z7961qpFFhvH9Aq7nxz6-183" value="&lt;font style=&quot;font-size: 23px;&quot;&gt;1&lt;/font&gt;" style="edgeLabel;html=1;align=center;verticalAlign=middle;resizable=0;points=[];" vertex="1" connectable="0" parent="1">
          <mxGeometry x="823" y="772" as="geometry" />
        </mxCell>
        <mxCell id="Z7961qpFFhvH9Aq7nxz6-184" style="edgeStyle=orthogonalEdgeStyle;rounded=0;orthogonalLoop=1;jettySize=auto;html=1;exitX=1;exitY=0.5;exitDx=0;exitDy=0;entryX=1;entryY=0.5;entryDx=0;entryDy=0;" edge="1" parent="1" source="Z7961qpFFhvH9Aq7nxz6-161" target="Z7961qpFFhvH9Aq7nxz6-85">
          <mxGeometry relative="1" as="geometry">
            <Array as="points">
              <mxPoint x="1193" y="357" />
              <mxPoint x="1263" y="357" />
              <mxPoint x="1263" y="143" />
              <mxPoint x="943" y="143" />
            </Array>
          </mxGeometry>
        </mxCell>
        <mxCell id="Z7961qpFFhvH9Aq7nxz6-185" value="&lt;font style=&quot;font-size: 23px;&quot;&gt;1&lt;/font&gt;" style="edgeLabel;html=1;align=center;verticalAlign=middle;resizable=0;points=[];" vertex="1" connectable="0" parent="1">
          <mxGeometry x="1223" y="358" as="geometry" />
        </mxCell>
        <mxCell id="Z7961qpFFhvH9Aq7nxz6-186" value="&lt;span style=&quot;font-size: 23px;&quot;&gt;M&lt;/span&gt;" style="edgeLabel;html=1;align=center;verticalAlign=middle;resizable=0;points=[];" vertex="1" connectable="0" parent="1">
          <mxGeometry x="973" y="143" as="geometry">
            <mxPoint x="-3" y="-1" as="offset" />
          </mxGeometry>
        </mxCell>
        <mxCell id="Z7961qpFFhvH9Aq7nxz6-187" value="&lt;font style=&quot;font-size: 23px;&quot;&gt;1&lt;/font&gt;" style="edgeLabel;html=1;align=center;verticalAlign=middle;resizable=0;points=[];" vertex="1" connectable="0" parent="1">
          <mxGeometry x="1123" y="490" as="geometry" />
        </mxCell>
        <mxCell id="Z7961qpFFhvH9Aq7nxz6-188" value="&lt;span style=&quot;font-size: 23px;&quot;&gt;M&lt;/span&gt;" style="edgeLabel;html=1;align=center;verticalAlign=middle;resizable=0;points=[];" vertex="1" connectable="0" parent="1">
          <mxGeometry x="796" y="593" as="geometry">
            <mxPoint x="-3" y="-1" as="offset" />
          </mxGeometry>
        </mxCell>
        <mxCell id="Z7961qpFFhvH9Aq7nxz6-189" value="&lt;font style=&quot;font-size: 23px;&quot;&gt;1&lt;/font&gt;" style="edgeLabel;html=1;align=center;verticalAlign=middle;resizable=0;points=[];" vertex="1" connectable="0" parent="1">
          <mxGeometry x="1568" y="632" as="geometry" />
        </mxCell>
        <mxCell id="Z7961qpFFhvH9Aq7nxz6-190" value="&lt;font style=&quot;font-size: 23px;&quot;&gt;M&lt;/font&gt;" style="edgeLabel;html=1;align=center;verticalAlign=middle;resizable=0;points=[];" vertex="1" connectable="0" parent="1">
          <mxGeometry x="1223" y="382" as="geometry">
            <mxPoint x="-3" y="1" as="offset" />
          </mxGeometry>
        </mxCell>
        <mxCell id="Z7961qpFFhvH9Aq7nxz6-191" value="&lt;font style=&quot;font-size: 23px;&quot;&gt;1&lt;/font&gt;" style="edgeLabel;html=1;align=center;verticalAlign=middle;resizable=0;points=[];" vertex="1" connectable="0" parent="1">
          <mxGeometry x="1444" y="765" as="geometry" />
        </mxCell>
        <mxCell id="Z7961qpFFhvH9Aq7nxz6-192" value="&lt;font style=&quot;font-size: 23px;&quot;&gt;M&lt;/font&gt;" style="edgeLabel;html=1;align=center;verticalAlign=middle;resizable=0;points=[];" vertex="1" connectable="0" parent="1">
          <mxGeometry x="1328" y="840" as="geometry">
            <mxPoint x="-3" y="1" as="offset" />
          </mxGeometry>
        </mxCell>
        <mxCell id="Z7961qpFFhvH9Aq7nxz6-193" value="&lt;font style=&quot;font-size: 23px;&quot;&gt;1&lt;/font&gt;" style="edgeLabel;html=1;align=center;verticalAlign=middle;resizable=0;points=[];" vertex="1" connectable="0" parent="1">
          <mxGeometry x="677" y="358" as="geometry">
            <mxPoint x="-134" y="-149" as="offset" />
          </mxGeometry>
        </mxCell>
        <mxCell id="Z7961qpFFhvH9Aq7nxz6-195" value="&lt;span style=&quot;font-size: 23px;&quot;&gt;M&lt;/span&gt;" style="edgeLabel;html=1;align=center;verticalAlign=middle;resizable=0;points=[];" vertex="1" connectable="0" parent="1">
          <mxGeometry x="546" y="523" as="geometry">
            <mxPoint x="127" y="-192" as="offset" />
          </mxGeometry>
        </mxCell>
        <mxCell id="Z7961qpFFhvH9Aq7nxz6-196" value="menempah" style="text;html=1;align=center;verticalAlign=middle;resizable=0;points=[];autosize=1;strokeColor=none;fillColor=none;" vertex="1" parent="1">
          <mxGeometry x="425" y="492" width="78" height="26" as="geometry" />
        </mxCell>
        <mxCell id="Z7961qpFFhvH9Aq7nxz6-197" value="mempunyai" style="text;html=1;align=center;verticalAlign=middle;resizable=0;points=[];autosize=1;strokeColor=none;fillColor=none;" vertex="1" parent="1">
          <mxGeometry x="603" y="244" width="80" height="26" as="geometry" />
        </mxCell>
        <mxCell id="Z7961qpFFhvH9Aq7nxz6-198" value="mempunyai" style="text;html=1;align=center;verticalAlign=middle;resizable=0;points=[];autosize=1;strokeColor=none;fillColor=none;" vertex="1" parent="1">
          <mxGeometry x="858" y="304" width="80" height="26" as="geometry" />
        </mxCell>
        <mxCell id="Z7961qpFFhvH9Aq7nxz6-199" value="menerima" style="text;html=1;align=center;verticalAlign=middle;resizable=0;points=[];autosize=1;strokeColor=none;fillColor=none;" vertex="1" parent="1">
          <mxGeometry x="1078" y="565" width="71" height="26" as="geometry" />
        </mxCell>
        <mxCell id="Z7961qpFFhvH9Aq7nxz6-200" value="mendaftar" style="text;html=1;align=center;verticalAlign=middle;resizable=0;points=[];autosize=1;strokeColor=none;fillColor=none;" vertex="1" parent="1">
          <mxGeometry x="1417" y="358" width="72" height="26" as="geometry" />
        </mxCell>
        <mxCell id="Z7961qpFFhvH9Aq7nxz6-201" value="mempunyai" style="text;html=1;align=center;verticalAlign=middle;resizable=0;points=[];autosize=1;strokeColor=none;fillColor=none;" vertex="1" parent="1">
          <mxGeometry x="1073" y="115" width="80" height="26" as="geometry" />
        </mxCell>
        <mxCell id="Z7961qpFFhvH9Aq7nxz6-202" value="mendapat" style="text;html=1;align=center;verticalAlign=middle;resizable=0;points=[];autosize=1;strokeColor=none;fillColor=none;" vertex="1" parent="1">
          <mxGeometry x="1452" y="805" width="71" height="26" as="geometry" />
        </mxCell>
        <mxCell id="Z7961qpFFhvH9Aq7nxz6-203" value="mempunyai" style="text;html=1;align=center;verticalAlign=middle;resizable=0;points=[];autosize=1;strokeColor=none;fillColor=none;" vertex="1" parent="1">
          <mxGeometry x="708" y="744" width="80" height="26" as="geometry" />
        </mxCell>
      </root>
    </mxGraphModel>
  </diagram>
</mxfile>
